<?xml version="1.0" standalone="no"?>
<!DOCTYPE svg PUBLIC "-//W3C//DTD SVG 1.1//EN" "http://www.w3.org/Graphics/SVG/1.1/DTD/svg11.dtd" >
<svg xmlns="http://www.w3.org/2000/svg">
<metadata></metadata>
<defs>
<font id="manksans-mediumregular" horiz-adv-x="1527" >
<font-face units-per-em="2048" ascent="1638" descent="-410" />
<missing-glyph horiz-adv-x="567" />
<glyph horiz-adv-x="2048" />
<glyph horiz-adv-x="2048" />
<glyph horiz-adv-x="682" />
<glyph horiz-adv-x="907" d="M90 1468q0 -172 94.5 -273t268.5 -101q82 0 149.5 27.5t115.5 77.5t73.5 118.5t25.5 150.5q0 41 -39 41h-59q-12 -4 -24.5 -16t-16.5 -25q0 -51 -14.5 -97t-43 -80t-70.5 -53t-97 -19q-113 0 -169.5 71.5t-56.5 177.5q-4 12 -16 24.5t-25 16.5q-10 0 -19 1t-20 1 q-23 0 -40 -8t-17 -35z" />
<glyph horiz-adv-x="505" d="M84 1311q0 -35 14.5 -64.5t38 -53.5t54 -37t63.5 -13t63.5 14t53 37t37 53.5t14.5 63.5t-14.5 63.5t-37 53t-53 37t-63.5 14.5q-35 0 -65.5 -13.5t-53 -37t-37 -54.5t-14.5 -63z" />
<glyph horiz-adv-x="653" d="M86 1239q0 -53 18.5 -97t50 -76t75.5 -50.5t98 -18.5q104 0 171.5 69t67.5 173t-69.5 171t-171.5 67q-51 0 -95.5 -18.5t-76 -50.5t-50 -75t-18.5 -94zM217 1239q0 47 31 81t80 34l131 -90q-16 0 -20.5 -22.5t-12.5 -48.5t-29.5 -48.5t-70.5 -22.5t-79 35t-30 82z" />
<glyph unicode="&#xa;" horiz-adv-x="804" d="M88 1130q0 -16 13.5 -27t29.5 -11h41q10 4 17.5 10t15.5 16l-4 -4q10 12 36.5 47t62.5 80t74 94t70.5 92t53 73t20.5 36q0 16 -11 26.5t-28 10.5h-76l-24 -10q-8 -14 -32.5 -49t-57.5 -81.5t-68 -96.5t-64.5 -94t-49 -74.5t-19.5 -37.5zM287 1130q0 -16 12 -27t29 -11h41 q6 2 34.5 34.5t67.5 79.5t82 102.5t80 104.5t60.5 83t23.5 40q0 16 -12.5 26.5t-28.5 10.5h-74l-24 -10q-8 -14 -34 -49t-57.5 -81.5t-67.5 -96.5t-64.5 -93t-48 -74.5t-19.5 -38.5z" />
<glyph horiz-adv-x="516" d="M84 -168q0 -74 47 -124t123 -50q23 0 53.5 10t58 26.5t47 40t19.5 50.5q0 20 -21.5 32.5t-37.5 18.5l-23 -4l-18 -12q-10 -16 -26.5 -23.5t-33.5 -7.5q-27 0 -37 19.5t-10 41.5q0 27 12.5 51.5t30 47t33.5 45t27 45.5q0 14 -12.5 19t-22.5 10q-8 12 -21.5 17t-27.5 5 l-19 -10q-18 -23 -41.5 -53.5t-46 -64.5t-38 -67.5t-15.5 -62.5z" />
<glyph horiz-adv-x="913" d="M90 1477q0 -10 39 -61.5t88 -114t94 -119t58 -74.5q4 -2 12 -5t10 -3h129q2 0 10.5 3t12.5 5q12 27 57 81t94 112.5t89 109t40 66.5t-12 27.5t-29 11.5h-45q-6 -2 -26.5 -22.5t-49 -50.5t-61.5 -65t-61.5 -67.5t-51 -57t-32.5 -34.5q-12 12 -54.5 60t-91.5 100.5t-90 93 t-49 43.5h-33q-20 0 -33.5 -8.5t-13.5 -30.5z" />
<glyph unicode="&#xd;" horiz-adv-x="292" d="M80 39q4 -10 16.5 -22.5t22.5 -16.5h55q10 4 22.5 16.5t16.5 22.5v907q-6 18 -25 33l-14 6h-55l-15 -6q-18 -14 -24 -33v-907z" />
<glyph horiz-adv-x="1296" d="M96 39q0 -16 13.5 -27.5t29.5 -11.5h72l25 12q20 29 72 101.5t124 172t157 218.5t170 239.5t165 234.5t141 204t98 147.5t37 65.5q0 18 -13 28.5t-30 10.5h-70l-24 -13q-16 -23 -67.5 -93.5t-122 -170.5t-155.5 -221t-172 -244t-168 -238.5t-143.5 -206.5t-100.5 -147.5 t-38 -60.5z" />
<glyph horiz-adv-x="991" d="M92 870q4 -10 10.5 -17t12.5 -13l16 -9h117v-792q4 -10 16 -22.5t23 -16.5h51q10 4 22.5 16.5t16.5 22.5v792h307l16 9q6 6 12.5 13t10.5 17v45q-4 10 -10 17.5t-13 13.5l-16 8h-307v189q0 51 9 95t31.5 77t60.5 52t95 19q59 0 125 -19t117 -52l23 -2l26 16l13 19v57 l-15 27q-63 31 -140 52t-149 21q-133 0 -199.5 -49t-95 -128t-29.5 -177t-1 -197h-117l-16 -8q-6 -6 -12.5 -13t-10.5 -18v-45zM770 39q4 -12 16.5 -23.5t24.5 -15.5h49l17 8q6 6 12 13.5t10 17.5v907q-6 20 -22 33l-17 6h-49l-16 -6q-18 -14 -25 -33v-907z" />
<glyph horiz-adv-x="1021" d="M92 870q4 -10 13.5 -21t19.5 -18h125v-792q4 -12 16.5 -23.5t24.5 -15.5h49l16 8q6 6 12.5 13.5t10.5 17.5v792h307q18 6 33 25l6 14v45l-8 19l-25 20h-315v189q0 51 10 96t32.5 78t61.5 51t97 18q57 0 113.5 -14t109.5 -33v-1300q4 -10 16 -22.5t23 -16.5h51 q10 4 22.5 16.5t16.5 22.5v1354q-8 16 -27 34q-72 35 -159 56.5t-169 21.5q-133 0 -200.5 -49t-95 -127t-28.5 -177t-1 -198h-119q-10 -4 -22.5 -16t-16.5 -23v-45z" />
<glyph horiz-adv-x="450" d="M82 989q0 -59 42 -100t101 -41t101.5 41t42.5 100t-42 101.5t-102 42.5q-59 0 -101 -42t-42 -102zM268 946l15 15l14 -15l-14 -14z" />
<glyph horiz-adv-x="1034" d="M92 -74q0 -16 4 -36.5t8 -36.5l15 -23q72 -37 153 -41l-6 -16q4 -135 75 -216t212 -81q135 0 210 84t81 213l-8 16q-10 10 -31 18h-45q-16 -6 -29 -18l-6 -16q0 -78 -44 -134.5t-128 -56.5q-86 0 -128 56.5t-42 134.5l-8 16l-4 2q82 12 135 54t84 102.5t43 132.5t12 143 v1180l-10 20l-25 21h-305q-12 -4 -24.5 -16.5t-16.5 -24.5v-45l10 -19l25 -20l215 -2v-1104q0 -53 -8 -107.5t-31.5 -97.5t-64.5 -70.5t-107 -27.5q-27 0 -51.5 9t-46 21.5t-40 21.5t-32.5 9q-18 0 -29.5 -13t-11.5 -32zM123 989q0 -59 41 -100t100 -41t101.5 41t42.5 100 t-42 101.5t-102 42.5q-59 0 -100 -42t-41 -102zM307 946l15 15l14 -15l-14 -14zM657 989q0 -59 41 -100t101 -41q59 0 101 41t42 100t-42 101.5t-101 42.5t-100.5 -42t-41.5 -102zM844 946l12 15l14 -15l-14 -14z" />
<glyph unicode=" "  horiz-adv-x="567" />
<glyph unicode="&#x09;" horiz-adv-x="567" />
<glyph unicode="&#xa0;" horiz-adv-x="567" />
<glyph unicode="!" horiz-adv-x="303" d="M80 39q6 -14 20 -29l17 -8h69q10 4 20.5 12.5t16.5 16.5v80q-6 16 -20 30l-17 9h-69l-17 -9q-14 -14 -20 -30v-72zM84 221q4 -10 14.5 -22.5t22.5 -16.5h59q10 4 22.5 16.5t16.5 22.5v1184q-4 12 -15 24.5t-24 16.5h-59q-12 -4 -22.5 -16.5t-14.5 -24.5v-1184z" />
<glyph unicode="&#x22;" horiz-adv-x="464" d="M82 1085l10 -20l25 -21h43q10 4 22.5 14.5t18.5 18.5l10 334v-4v10q2 16 -9.5 25.5t-27.5 9.5h-51q-12 -4 -24.5 -16.5t-16.5 -24.5v-326zM252 1085q6 -20 22 -32l17 -9h35q10 4 22 14.5t19 18.5l14 334q2 18 -10.5 29.5t-30.5 11.5h-51l-17 -8q-6 -8 -11 -15.5t-9 -17.5 v-326z" />
<glyph unicode="#" horiz-adv-x="1136" d="M94 588l8 -17q8 -6 15.5 -11t15.5 -9h166l-27 -305q4 -12 13.5 -24.5t25.5 -12.5h49q10 2 22.5 11t18.5 16q8 78 14.5 157.5t14.5 157.5h229l-26 -305q4 -12 13 -24.5t26 -12.5h51q10 2 22.5 11t18.5 16q10 78 15 157.5t12 157.5h188q10 4 17.5 9t15.5 11l6 17v53l-6 16 q-14 18 -33 25h-176q4 61 9 122.5t11 121.5h181l14 6q18 15 24 33v53l-8 16q-8 6 -15 11.5t-15 9.5h-168l28 291q2 16 -10 30.5t-29 14.5h-51q-10 -4 -22.5 -13.5t-18.5 -17.5l-24 -305h-232l25 291q2 16 -9.5 30.5t-29.5 14.5h-51q-10 -4 -22.5 -13.5t-18.5 -17.5l-25 -305 h-188q-10 -4 -17.5 -9.5t-15.5 -11.5l-6 -16v-53l6 -17l16 -16l17 -6h176q-4 -59 -10.5 -122t-12.5 -122h-178q-12 -4 -23.5 -16.5t-15.5 -24.5v-53zM442 682q6 61 12.5 121.5t10.5 122.5h229l-22 -244h-230z" />
<glyph unicode="$" horiz-adv-x="978" d="M92 147l14 -28q72 -27 146 -41.5t147 -18.5l-10 -129q-2 -16 4 -23t15.5 -11.5t19.5 -4.5h23q23 0 44 5.5t21 33.5q0 33 -5 65t-5 64q80 2 149.5 22.5t120.5 61.5t81 103.5t30 150.5q0 113 -48 182.5t-120 114.5t-155 75t-154.5 64.5t-119.5 84t-48 131.5q0 61 18.5 102 t52 64.5t80.5 32.5t103 9q57 0 113.5 -8t111.5 -24q18 -6 37.5 -15.5t40.5 -9.5q16 0 25.5 12.5t9.5 26.5v59q-12 23 -23 37q-123 41 -246 47l13 107q2 18 -11.5 30.5t-29.5 12.5h-48q-29 -10 -38 -39q0 -29 2 -55.5t2 -55.5q-160 -6 -252 -87t-92 -246q0 -115 48 -184.5 t119.5 -112.5t155.5 -72t156 -62.5t120 -84t48 -136.5q0 -61 -26.5 -102t-67.5 -65.5t-94.5 -35t-104.5 -10.5q-20 0 -55 3t-72 9.5t-69.5 14.5t-51.5 16q-23 10 -44 24.5t-46 14.5q-16 0 -25.5 -12t-9.5 -29v-78z" />
<glyph unicode="%" horiz-adv-x="1206" d="M94 1165q0 -129 72 -212t205 -83q66 0 117 22.5t85.5 62.5t52 93.5t17.5 116.5q0 135 -65.5 213t-206.5 78q-139 0 -208 -78t-69 -213zM106 39q0 -39 41 -39h66l23 12q16 27 62 100.5t109.5 176t138.5 224.5t151.5 246t148.5 240.5t127 207.5t88 147.5t33 58.5 q0 16 -12.5 27.5t-28.5 11.5h-64l-22 -12q-14 -23 -59.5 -95.5t-109 -174t-139 -224.5t-152.5 -248t-148.5 -242.5t-128 -209.5t-90.5 -148.5t-34 -58.5zM221 1165q0 72 36 121t114 49t111.5 -49t33.5 -121q0 -70 -33.5 -122t-111.5 -52q-76 0 -113 52.5t-37 121.5zM563 283 q0 -129 71 -212t204 -83q66 0 117 22.5t85.5 62.5t52 93.5t17.5 116.5q0 135 -65.5 212.5t-206.5 77.5t-208 -77.5t-67 -212.5zM690 283q0 72 35 121t113 49t112.5 -49t34.5 -121q0 -68 -37 -121t-110 -53q-76 0 -112 52t-36 122z" />
<glyph unicode="&#x26;" horiz-adv-x="1284" d="M96 451q0 -219 122 -341t341 -122q109 0 207 45t170 125q29 -39 58.5 -76t62.5 -72l18 -8l74 -2q14 0 26.5 10.5t12.5 26.5q0 6 -23.5 39t-54.5 71.5t-58.5 74.5t-35.5 46q18 37 37.5 83t35 95.5t25.5 97.5t10 89q0 25 -18.5 39t-40.5 14q-25 0 -43 -14.5t-18 -40.5 q0 -72 -18.5 -144.5t-49.5 -136.5q-96 127 -178 261t-164 270q49 25 100 55.5t93 69t69 88t27 110.5q0 113 -73 182.5t-183 69.5q-61 0 -116.5 -17.5t-96.5 -51t-64.5 -84t-23.5 -115.5q0 -72 25.5 -136.5t60.5 -123.5q-68 -41 -126.5 -89t-100.5 -106.5t-65.5 -128 t-23.5 -153.5zM231 451q0 59 19.5 115.5t52.5 104.5t78 87t96 65q90 -147 184.5 -288.5t196.5 -280.5q-53 -68 -133 -106.5t-166 -38.5q-76 0 -136.5 25.5t-103.5 70.5t-65.5 108.5t-22.5 137.5zM459 1188q0 72 50 109.5t118 37.5q55 0 91 -39t36 -92q0 -39 -23.5 -72.5 t-58.5 -61.5t-74 -49.5t-70 -35.5q-29 45 -49 97.5t-20 105.5z" />
<glyph unicode="'" horiz-adv-x="292" d="M80 1085l10 -20l25 -21h43l16 9l23 24l16 334q2 18 -11.5 29.5t-29.5 11.5h-53q-12 -4 -23.5 -16.5t-15.5 -24.5v-326z" />
<glyph unicode="(" horiz-adv-x="503" d="M84 776q0 -94 14.5 -199.5t43 -209t69.5 -199.5t96 -174q20 -14 47 -14q16 8 41 24.5t25 36.5q0 8 -6 24.5t-14.5 33t-16.5 32.5t-14 25l2 -2q-35 63 -62.5 141t-47 161t-30 164.5t-10.5 155.5q0 135 31 267.5t80 256.5q6 16 20.5 44t29.5 59t26.5 57.5t11.5 38.5 q0 20 -24.5 36.5t-41.5 25.5q-27 0 -47 -15q-55 -78 -96 -172t-69.5 -195.5t-43 -205t-14.5 -197.5z" />
<glyph unicode=")" horiz-adv-x="503" d="M84 51q0 -29 21.5 -45t44.5 -26q25 0 47 14q55 78 96 174t69.5 199.5t43 209t14.5 199.5t-14.5 197.5t-43 205t-70.5 195.5t-97 172q-23 14 -41 15q-16 -6 -43 -23.5t-27 -38.5q0 -14 11 -40.5t25.5 -57.5t30 -58.5t21.5 -44.5v2q49 -127 80 -258t31 -266 q0 -143 -28 -284.5t-89 -270.5q-4 -10 -17.5 -34.5t-28 -53.5t-25.5 -52.5t-11 -29.5z" />
<glyph unicode="*" horiz-adv-x="929" d="M92 1018q0 -4 6 -16.5t13.5 -25.5t14.5 -25.5t11 -16.5q8 -6 18.5 -9t20.5 -5q61 35 120.5 71.5t119.5 77.5q-4 -37 -7 -74t-3 -73l2 -142q8 -18 18 -26l14 -6h72l16 6q10 8 19 26v142q0 35 -5 69.5t-10 69.5q53 -41 108.5 -76t115.5 -63q10 2 20 5t19 9l43 70 q0 10 -5.5 20t-11.5 18q-59 35 -119.5 65t-123.5 56q63 29 124.5 58.5t120.5 64.5q4 6 7.5 12.5t7.5 12.5l-2 20l-39 64q-18 14 -39 14q-59 -33 -115.5 -68.5t-112.5 -76.5q10 35 13.5 72.5t3.5 72.5v115l-8 16q-6 8 -27 17h-72q-16 -8 -24 -17l-8 -16v-115q0 -37 2 -74 t6 -73q-59 41 -117.5 78.5t-124.5 68.5l-18 -2l-21 -10l-43 -70q0 -10 5 -21.5t12 -19.5q61 -35 124.5 -63.5t128.5 -57.5q-18 -6 -62 -23.5t-90 -39t-82 -45t-36 -41.5z" />
<glyph unicode="+" horiz-adv-x="835" d="M90 741l6 -16l15 -16l16 -9l229 2l-2 -229l8 -16q6 -6 13.5 -12.5t17.5 -10.5h49q10 4 17.5 10.5t13.5 12.5l8 16l-2 229l230 -2l16 9l20 22v55l-6 17q-10 14 -30 22l-230 -2l2 230q-4 12 -15 24.5t-24 16.5h-49q-12 -4 -23.5 -16.5t-15.5 -24.5l2 -230l-229 2 q-23 -8 -31 -22l-6 -17v-45z" />
<glyph unicode="," horiz-adv-x="407" d="M82 -66q0 -16 12 -27t29 -11h43q8 6 14 12t13 12v-2q2 2 2 4t2 4q6 12 12 23.5t10 23.5q6 12 23.5 51t36 82.5t33 80t14.5 42.5q0 16 -11.5 26.5t-27.5 10.5h-76q-10 -4 -19.5 -11t-13.5 -15q-4 -16 -19.5 -64.5t-32.5 -100.5t-30.5 -94t-13.5 -47z" />
<glyph unicode="-" horiz-adv-x="641" d="M86 627l10 -21l23 -20h397q12 4 23.5 16.5t15.5 24.5v45l-10 20l-23 19h-397q-16 -8 -31 -23l-8 -16v-45z" />
<glyph unicode="." horiz-adv-x="419" d="M80 29l10 -21l25 -20h98q12 4 24.5 16.5t16.5 24.5v94l-10 20l-25 19h-98q-20 -6 -33 -23l-8 -16v-94z" />
<glyph unicode="/" horiz-adv-x="817" d="M88 39q0 -18 13.5 -28.5t29.5 -10.5h66l24 16q131 348 255 693.5t253 695.5q0 18 -12 29.5t-31 11.5h-63l-25 -16q-10 -25 -36.5 -96.5t-63.5 -174t-82 -224.5t-91 -246t-88 -239.5t-76 -206.5t-53.5 -146.5t-19.5 -57.5z" />
<glyph unicode="0" horiz-adv-x="1267" d="M96 727q0 -123 29 -254t93.5 -238.5t166.5 -177t250 -69.5q143 0 244.5 70.5t166 179t95 238.5t30.5 251q0 123 -30.5 252t-96 234.5t-167 174t-244.5 68.5t-244.5 -68.5t-166 -175t-95.5 -235.5t-31 -250zM231 727q0 59 10.5 130t32 140.5t54 135t77 112.5t101.5 72.5 t129 17.5q102 -12 167.5 -59t129.5 -129q39 -49 60.5 -120t30.5 -135.5t10 -111.5t1 -53q0 -92 -20.5 -199.5t-66.5 -201t-124 -155.5t-190 -62q-113 0 -189.5 62t-124 155.5t-68 202t-20.5 198.5z" />
<glyph unicode="1" horiz-adv-x="808" d="M88 1253q0 -16 7 -35.5t30 -19.5q10 0 48 15.5t83 35t86 38t57 24.5v-1188h-145q-12 -4 -24.5 -15.5t-16.5 -23.5v-47q4 -12 16.5 -23.5t24.5 -15.5h426q12 4 24.5 15.5t16.5 23.5v47q-4 12 -16.5 23.5t-24.5 15.5h-143v1288q-4 12 -16.5 24.5t-24.5 16.5h-62l-328 -141 l-16 -27q0 -8 -1 -15t-1 -16z" />
<glyph unicode="2" horiz-adv-x="1009" d="M92 39q4 -10 10.5 -17.5t12.5 -13.5l16 -8h748q10 4 22.5 16.5t16.5 22.5v289q-4 12 -15.5 24.5t-23.5 16.5h-48l-18 -11l-20 -24v-205q-61 -4 -123 -6t-123 -2q-68 0 -135.5 1t-135.5 1q47 57 111 128t131.5 150.5t132 164.5t116.5 171t84 170t32 160q0 213 -102.5 299 t-307.5 86q-76 0 -150.5 -12.5t-146.5 -32.5q-8 -8 -15 -18.5t-11 -20.5v-27q0 -14 2 -30.5t9 -27.5t21 -11q35 0 71 8t71.5 19.5t72.5 19.5t74 8q131 0 205 -61.5t74 -198.5q0 -72 -36 -155t-94.5 -170t-131 -176t-146.5 -172t-139.5 -154.5t-110.5 -126.5v-74z" />
<glyph unicode="3" horiz-adv-x="968" d="M92 68l6 -17l23 -22q147 -41 295 -41q92 0 176 26.5t147.5 78.5t100.5 128t37 176q0 139 -79 229.5t-204 137.5q43 23 85 57.5t77 77.5t56.5 91t21.5 100q0 184 -109 275t-285 91q-72 0 -142.5 -13t-137.5 -34q-6 -8 -12.5 -16.5t-10.5 -18.5l-2 -51q0 -16 6 -36.5 t31 -20.5q18 0 49 10t68 23.5t77 23.5t76 10q111 0 185.5 -63.5t74.5 -179.5q0 -66 -34.5 -116t-88 -86t-117 -55.5t-118.5 -19.5q-8 -6 -17.5 -17.5t-13.5 -21.5v-45l11 -20l22 -21q66 0 135.5 -16.5t128 -52t96 -91t37.5 -131.5q0 -70 -27.5 -123t-73.5 -90t-105.5 -55 t-122.5 -18q-37 0 -78 10t-80 23.5t-72.5 23.5t-54.5 10q-14 0 -25.5 -12t-11.5 -27v-71z" />
<glyph unicode="4" horiz-adv-x="1202" d="M94 481l10 -20l25 -19h614v-403q2 -10 8.5 -17.5t12.5 -13.5l16 -8h56q18 6 32 25l6 14v403h193l16 7q19 14 25 32v45l-10 21l-25 20h-201v848l-6 17q-14 18 -32 24h-64l-20 -12l-656 -909v-54zM274 567q119 164 235.5 326t233.5 328l-2 -654h-467z" />
<glyph unicode="5" horiz-adv-x="944" d="M90 63q4 -10 13.5 -21t17.5 -17q125 -37 260 -37q96 0 182 27.5t150.5 82t102.5 134.5t38 182q0 446 -446 446q-35 0 -67 -1t-67 -3q6 117 11.5 231.5t9.5 231.5q70 2 139.5 3t138.5 1q49 0 99.5 -1t99.5 -3q35 14 35 51q0 8 -1 22.5t-4 28t-11.5 22.5t-20.5 9 q-141 0 -283.5 -5t-283.5 -5q-10 -4 -22.5 -14.5t-18.5 -18.5l-25 -651q0 -18 12.5 -28.5t28.5 -10.5q59 0 115.5 9t116.5 9q154 0 231.5 -87t77.5 -236q0 -74 -26.5 -130.5t-73 -95t-107.5 -59t-131 -20.5q-35 0 -70 9t-68.5 21.5t-63 21.5t-50.5 9q-16 0 -27.5 -11.5 t-11.5 -27.5v-68z" />
<glyph unicode="6" horiz-adv-x="1120" d="M94 582q0 -109 25.5 -215.5t81 -190.5t142.5 -136t212 -52q109 0 196 32.5t148.5 93t94 147.5t32.5 196q0 217 -105.5 329.5t-326.5 112.5q-96 0 -185.5 -37t-164.5 -92q18 100 65 199.5t118 177.5t164 127t206 49q12 0 29.5 -2t34 0t27.5 10t11 27v51q-4 10 -9 17.5 t-11 15.5l-17 8l-65 2q-72 2 -139.5 -18.5t-131.5 -53.5q-115 -59 -196.5 -145t-134 -189.5t-77 -222t-24.5 -241.5zM229 582v8q78 76 165 129t200 53q154 0 225.5 -84t71.5 -231q0 -76 -23.5 -140.5t-66.5 -110.5t-105.5 -71.5t-140.5 -25.5q-86 0 -147.5 47t-101.5 117.5 t-58.5 153.5t-18.5 155z" />
<glyph unicode="7" horiz-adv-x="1001" d="M92 1174q4 -10 10.5 -17.5t12.5 -13.5l16 -8h45l21 10l20 22v152q125 6 254 6h295l-37 -92.5t-63.5 -161.5t-80.5 -205.5t-88 -225.5t-86 -221.5t-74 -191.5t-51.5 -136t-19.5 -56q0 -16 12.5 -25.5t26.5 -9.5h62l24 16l518 1334v55q-6 20 -22 33l-17 8q-373 -6 -743 0 l-23 -12l-12 -25v-235z" />
<glyph unicode="8" horiz-adv-x="1124" d="M94 408q0 -106 36 -185.5t98.5 -131.5t148.5 -77.5t186 -25.5t185.5 25.5t147.5 77.5t98 131.5t36 185.5q0 117 -52 217t-161 153q72 57 121 143.5t49 178.5q0 98 -33.5 165.5t-91 110.5t-135.5 61.5t-166 18.5t-166 -19.5t-135 -61.5t-90 -109.5t-33 -165.5 q0 -102 43 -189.5t135 -138.5q-94 -57 -157.5 -154.5t-63.5 -209.5zM229 408q0 74 25 130t69 95t104 58.5t130 19.5q68 0 129.5 -20.5t107.5 -58.5t73.5 -94t27.5 -130q0 -76 -25.5 -132.5t-70.5 -93.5t-106.5 -54t-131.5 -17q-72 0 -132 18t-104 55t-70 92.5t-26 131.5z M272 1100q0 66 26 111.5t68 73.5t95 40t108 12t105.5 -16t89.5 -47t63.5 -74t28.5 -98q2 -55 -13.5 -104.5t-50 -86.5t-87 -58.5t-121.5 -21.5q-66 0 -122 15.5t-98 47.5t-67 83t-25 123z" />
<glyph unicode="9" horiz-adv-x="1120" d="M94 997q0 -96 25.5 -179t78 -146.5t128 -99t178.5 -35.5q100 0 194.5 33.5t178.5 86.5q-12 -88 -39 -185t-76 -179t-125 -135.5t-184 -53.5q-43 0 -85 13.5t-87 13.5q-18 0 -31.5 -9t-13.5 -32v-55q4 -10 12 -20.5t16 -18.5q47 -12 94.5 -16.5t94.5 -4.5q121 0 210 44 t152.5 119t104.5 172.5t64.5 202.5t32.5 212t9 199q0 117 -27.5 214t-86 167.5t-148.5 110.5t-215 40q-102 0 -185 -33.5t-143.5 -95t-93.5 -145.5t-33 -185zM229 997q0 70 22.5 131.5t64.5 107.5t101.5 72.5t131.5 26.5q94 0 158.5 -32.5t105.5 -89t59.5 -131t18.5 -158.5 v-50t-2 -49q-88 -66 -179.5 -113.5t-205.5 -47.5q-72 0 -123 28.5t-85 74.5t-50.5 106.5t-16.5 123.5z" />
<glyph unicode=":" horiz-adv-x="333" d="M80 29l10 -21l25 -20h98q12 4 24.5 16.5t16.5 24.5v104l-10 19l-25 20h-98q-20 -6 -33 -22l-8 -17v-104zM80 645l10 -18l25 -21h98q20 6 33 23l8 16v96l-10 19l-25 20h-98q-12 -4 -24.5 -15t-16.5 -24v-96z" />
<glyph unicode=";" horiz-adv-x="421" d="M82 -66q0 -16 12 -27t29 -11h43q8 6 14 12t13 12v-2q2 2 2 4t2 4q6 12 12 23.5t10 23.5q6 12 23.5 51t36 82.5t33 80t14.5 42.5q0 16 -11.5 26.5t-27.5 10.5h-76l-21 -12q-4 -6 -21 -55t-36.5 -105.5t-35 -104.5t-15.5 -55zM166 645q4 -10 13 -21.5t20 -17.5h102 q10 4 17.5 10.5t13.5 12.5l8 16v96l-10 19l-25 20h-100l-17 -8q-6 -6 -12 -13t-10 -18v-96z" />
<glyph unicode="&#x3c;" horiz-adv-x="862" d="M90 748l12 -23q16 -10 66.5 -41t116 -70t137.5 -82t134 -77.5t104 -58t49 -23.5q6 0 17 9t21.5 21.5t17.5 24.5t7 18q0 14 -32.5 40t-83 59t-112 66.5t-117.5 64.5t-100 54.5t-63 31.5q2 4 41 25.5t95.5 54t121 69.5t120.5 72t93 60.5t37 35.5q0 29 -19.5 47.5 t-41.5 28.5q-8 -2 -51.5 -24.5t-104.5 -58.5t-132 -77t-135.5 -79.5t-114.5 -68.5t-71 -42l-12 -25v-32z" />
<glyph unicode="=" horiz-adv-x="835" d="M90 580q2 -10 8 -17.5t13 -13.5l16 -8h582q10 4 20 12t16 16v58l-6 16l-14 16l-16 9h-582l-16 -9l-15 -16l-6 -16v-47zM90 899l6 -16l15 -17l16 -6h582l16 6l20 23v57l-6 17l-14 16l-16 6h-582l-16 -6l-15 -16l-6 -17v-47z" />
<glyph unicode="&#x3e;" horiz-adv-x="862" d="M90 449q0 -6 7 -18.5t17.5 -26t21.5 -22.5t18 -9q6 0 48 23.5t104.5 58t134 77.5t137 82t114.5 70t68 41l12 23v32l-12 25q-20 12 -70.5 42t-115 68.5t-135 79.5t-132 77t-104.5 58.5t-51 24.5q-23 -10 -42.5 -28.5t-19.5 -47.5q0 -14 33 -39.5t83 -57.5t110.5 -66.5 t116.5 -64.5t101.5 -53.5t61.5 -33.5q-115 -66 -228.5 -131.5t-224.5 -138.5q-2 -2 -11 -8.5t-18.5 -13.5t-16.5 -14t-7 -9z" />
<glyph unicode="?" horiz-adv-x="944" d="M92 1327q0 -20 5 -49t34 -29q6 0 37 13.5t73 30t89 29.5t90 13q74 0 130 -26.5t93 -72.5t56.5 -107.5t19.5 -131.5q0 -80 -45 -149.5t-112.5 -127.5t-145.5 -101.5t-144 -67.5l-14 -27v-303l6 -14q14 -18 33 -25h29q20 0 46.5 5.5t26.5 33.5q0 59 -3 120.5t-5 121.5 q70 35 151 90t150.5 125t115.5 151.5t46 167.5q0 100 -28.5 185.5t-84 146t-136.5 94t-185 33.5q-76 0 -163 -16.5t-153 -57.5l-12 -24v-31zM254 39q4 -8 9 -15.5l9 -13.5l17 -8h71l17 8l18 21v80q-8 20 -18 30l-17 9h-71l-17 -9q-10 -10 -18 -30v-72z" />
<glyph unicode="@" horiz-adv-x="1218" d="M96 387q0 -143 42 -259t121 -197t193.5 -125t260.5 -44l22 13l13 18v25q0 35 -4.5 53t-43.5 23q-41 4 -77.5 7t-77.5 13q-84 25 -143.5 71t-98.5 107.5t-57.5 137t-18.5 157.5q0 104 30 194.5t88 157t142 103.5t195 37q47 0 102.5 -10.5t102.5 -34t78.5 -63.5t31.5 -99 v-21q-88 16 -166 17q-86 0 -168.5 -15.5t-149.5 -54.5t-106.5 -105.5t-39.5 -168.5q0 -143 81.5 -234.5t229.5 -91.5q90 0 174 32.5t147 98.5l5 -106q4 -12 16 -23.5t24 -15.5h41q10 4 20.5 12t16.5 16v660q0 92 -40 155.5t-103.5 102.5t-142 56.5t-156.5 17.5 q-141 0 -249.5 -45.5t-182.5 -127t-113 -194.5t-39 -250zM500 324q0 92 56 138t137 66.5t168.5 23.5t148.5 7q-10 -4 -12.5 -38t-7.5 -82t-18.5 -103t-47 -102.5t-93 -78t-155.5 -30.5q-88 0 -132 58.5t-44 140.5z" />
<glyph unicode="A" horiz-adv-x="1329" d="M111 35q2 -16 14 -25.5t29 -9.5h61l27 16q100 264 194 535h488l194 -535l27 -16l49 -2q18 0 34.5 7t16.5 30q0 10 -16.5 60t-42 122t-55 155t-58.5 158.5t-50.5 136t-29.5 83.5l-237 680l-29 16h-86l-27 -16q-123 -352 -248.5 -698.5t-254.5 -696.5zM477 676l209 569 l199 -569h-408z" />
<glyph unicode="B" horiz-adv-x="927" d="M90 39l10 -19l25 -20q68 0 135.5 -6t134.5 -6q96 0 178 21.5t140.5 68.5t91.5 121t33 178q0 53 -11.5 106.5t-35 100.5t-60.5 86t-86 63q86 51 130 140.5t44 187.5q0 109 -28.5 183.5t-83 120.5t-133 66.5t-181.5 20.5q-135 0 -270 -6q-8 -6 -18.5 -18.5t-14.5 -22.5 v-1366zM221 117v549q20 0 41 1t41 1h105q135 0 217 -76t82 -215q0 -76 -22.5 -128t-64.5 -84t-99.5 -45.5t-127.5 -13.5q-43 0 -87 1.5t-85 9.5zM221 793v548q20 0 41 1t41 1h105q135 0 217 -75.5t82 -214.5q0 -76 -22.5 -128.5t-64.5 -84t-99.5 -45t-127.5 -13.5 q-43 0 -87 1t-85 10z" />
<glyph unicode="C" horiz-adv-x="1366" d="M98 737q0 -168 42 -306t128 -236.5t216 -152.5t307 -54q51 0 111.5 6t121.5 18.5t119.5 29.5t105.5 38l17 22l2 52q0 18 -7.5 33.5t-29.5 15.5q-8 0 -21 -4h2q-102 -35 -207.5 -62.5t-213.5 -27.5q-141 0 -246 49t-174.5 133t-103.5 198.5t-34 247.5q0 141 32 252 t99.5 187.5t173 117.5t253.5 41q104 0 197 -20.5t192 -54.5l-9 6q4 -2 12.5 -5.5t10.5 -3.5q16 0 28.5 10.5t12.5 26.5v68l-16 24q-104 41 -211 55.5t-217 14.5q-358 0 -525.5 -184.5t-167.5 -534.5z" />
<glyph unicode="D" horiz-adv-x="1380" d="M98 43q4 -10 12.5 -20.5t16.5 -18.5q106 -4 210.5 -10t211.5 -6q178 0 314 51t229.5 148.5t141.5 235.5t48 314q0 193 -49 328t-146.5 221t-239.5 126t-327 40q-98 0 -192.5 -3t-192.5 -3q-12 -4 -22.5 -16.5t-14.5 -24.5v-1362zM231 125v1192q72 6 145 8t144 2 q152 0 268.5 -32.5t196.5 -104.5t121 -183.5t41 -269.5q0 -141 -39 -256.5t-114.5 -197.5t-187.5 -127t-257 -45q-80 0 -159 3t-159 11z" />
<glyph unicode="E" horiz-adv-x="888" d="M90 39q4 -10 16.5 -22.5t22.5 -16.5q158 0 314.5 -1t314.5 -5q10 4 22.5 16.5t16.5 22.5v12v27q0 16 -3 29.5t-12.5 23.5t-25.5 10q-68 0 -135.5 -5t-135.5 -5h-135q-33 0 -63.5 1t-63.5 1v559h281q14 0 46 -3q19 -2 39 -2q13 0 25 1q32 2 57 11t25 32v53l-8 17 q-12 16 -33 22l-432 -6v510h262q61 0 124 -4t124 -4q39 0 39 39v53l-6 16l-14 17l-17 8h-606q-12 -4 -23.5 -16.5t-15.5 -24.5q3 -342 3 -683.5t-3 -682.5z" />
<glyph unicode="F" horiz-adv-x="833" d="M88 39q4 -10 10 -17.5t13 -13.5l16 -8h53l17 8q6 6 12 13.5t10 17.5v635h281q25 0 56.5 -4t60 -2t48 16t19.5 51q0 23 -6 44.5t-35 21.5h-424v516q59 0 118.5 1t119.5 1h108q35 0 70 -1t70 -3l18 8l20 20v62l-6 16l-14 17l-16 8h-580l-16 -8q-16 -12 -23 -33v-1366z" />
<glyph unicode="G" horiz-adv-x="1361" d="M98 737q0 -168 43 -306t129 -236.5t216 -152.5t307 -54q51 0 110.5 6t120.5 18.5t118.5 28.5t104.5 37l17 22v613l-11 20l-22 19h-397l-15 -7q-18 -14 -24 -32v-45l10 -21l24 -20h304v-457q-84 -27 -169 -44t-173 -17q-141 0 -247 48t-175.5 133t-103.5 199.5t-34 247.5 q0 141 33 252t101.5 187.5t175 117.5t252.5 41q72 0 140 -9t136 -32l119 -37q18 0 33.5 7.5t15.5 29.5v62q-6 18 -25 33q-102 41 -207.5 54t-213.5 13q-356 0 -524.5 -185.5t-168.5 -533.5z" />
<glyph unicode="H" horiz-adv-x="1325" d="M96 39l10 -19l25 -20h59l17 8q6 6 12 13.5t10 17.5v668h869v-668q4 -10 10 -17.5t12 -13.5l17 -8h51q12 4 24.5 15.5t16.5 23.5v1366l-10 20l-25 21h-59l-17 -8q-16 -12 -22 -33v-574h-869v574q-6 20 -22 33l-17 8h-51q-12 -4 -24.5 -16.5t-16.5 -24.5v-1366z" />
<glyph unicode="I" horiz-adv-x="638" d="M86 37q4 -10 16.5 -22.5t22.5 -16.5h389q10 4 22.5 16.5t16.5 22.5v47q-4 10 -16.5 22.5t-22.5 16.5h-127v1282q-4 12 -15.5 24.5t-23.5 16.5h-55q-12 -4 -23.5 -16.5t-15.5 -24.5v-1282h-129q-10 -4 -22.5 -16.5t-16.5 -22.5v-47z" />
<glyph unicode="J" horiz-adv-x="727" d="M88 -74q0 -16 3 -36.5t7 -36.5l15 -23q41 -23 90 -33t96 -10q98 0 163.5 36t104.5 96.5t55.5 139t16.5 164.5v1180l-8 20l-25 21h-307l-16 -8q-16 -12 -23 -33v-45q4 -10 13.5 -21.5t19.5 -17.5l217 -2v-1104q0 -53 -9 -107.5t-33 -97.5t-66 -70.5t-105 -27.5 q-47 0 -87 22.5t-81 38.5q-20 0 -30.5 -13t-10.5 -32z" />
<glyph unicode="K" horiz-adv-x="964" d="M92 39l8 -19l25 -20h61l17 8q6 6 12 13.5t10 17.5v579l514 -608l21 -10h28q20 0 39 3t32 10.5t13 23.5q0 4 -38.5 53t-98 122t-130 158t-136.5 161.5t-115 134t-63 75.5q12 14 56 67.5t102.5 126.5t123 152.5t118.5 149.5t89 117t35 53q0 16 -11 27.5t-28 11.5h-69 q-10 -4 -46 -44t-84.5 -99.5t-103.5 -130t-105.5 -135t-89 -115t-53.5 -68.5v551l-10 20l-22 21h-62q-18 -6 -33 -25l-6 -16v-1366z" />
<glyph unicode="L" horiz-adv-x="864" d="M90 39q4 -8 9 -15.5t12 -15.5l16 -8h606l17 8q6 6 12 13.5t10 17.5q0 10 1 19.5t1 19.5q0 20 -8 37.5t-33 17.5q-59 0 -118.5 -4t-118.5 -4h-273v1280q-4 12 -16 24.5t-25 16.5h-55l-16 -8q-6 -8 -11.5 -15.5t-9.5 -17.5v-1366z" />
<glyph unicode="M" horiz-adv-x="1677" d="M102 39l11 -19l24 -20h60q10 4 22 16.5t17 22.5q-2 274 -3.5 544.5t-1.5 544.5q127 -285 265.5 -559t273.5 -555l25 -14h53l24 14q143 287 285.5 568.5t290.5 566.5l-6 -1110q4 -10 13 -21.5t20 -17.5h59q12 4 24.5 15.5t16.5 23.5v1366l-10 20l-25 21h-76l-24 -14 q-156 -311 -309.5 -621.5t-309.5 -622.5l-585 1242l-25 16h-68q-12 -4 -24.5 -16.5t-16.5 -24.5v-1366z" />
<glyph unicode="N" horiz-adv-x="1306" d="M96 39l10 -19l25 -20h59q10 4 22.5 16.5t16.5 22.5q-2 293 -3 582.5t-1 582.5q211 -305 430 -599t437 -593l20 -12h57q12 4 24.5 15.5t16.5 23.5v1366l-10 20l-24 21h-64q-12 -4 -23.5 -16.5t-15.5 -24.5q2 -293 4 -581.5t4 -581.5q-211 303 -426 599t-436 593l-20 12 h-62q-12 -4 -24.5 -16.5t-16.5 -24.5v-1366z" />
<glyph unicode="O" d="M100 737q0 -158 41 -295t123 -238.5t207 -158.5t295 -57q166 0 290 59t207 160.5t123.5 238.5t40.5 291q0 164 -38.5 297t-120.5 226.5t-207 144.5t-297 51t-297 -51t-207 -144.5t-121 -226.5t-39 -297zM236 737q0 131 29.5 240.5t94 189.5t165 124t241.5 44t244.5 -45 t156.5 -102q35 -37 58.5 -93.5t38 -119t20.5 -126t6 -112.5q0 -123 -30.5 -236.5t-95 -200.5t-164 -139t-236.5 -52q-135 0 -235.5 52t-165 139t-96 200.5t-31.5 236.5z" />
<glyph unicode="P" horiz-adv-x="880" d="M90 39q4 -10 13.5 -21.5t19.5 -17.5h61q12 4 24.5 15.5t16.5 23.5v584q31 -4 61.5 -6.5t61.5 -2.5q98 0 179 32t139.5 90.5t91.5 139.5t33 179q0 109 -30 184.5t-85 122.5t-136 68.5t-184 21.5q-119 0 -235 -6q-8 -6 -17.5 -18.5t-13.5 -22.5v-1366zM223 737v590 q41 2 82 2h82q66 0 116 -9t85 -33.5t52 -68.5t17 -116q0 -80 -15 -147.5t-52 -117t-96.5 -77t-147.5 -27.5h-61q-31 0 -62 4z" />
<glyph unicode="Q" d="M100 737q0 -145 35 -275t106.5 -230.5t184.5 -164t270 -75.5q8 -168 99.5 -266.5t265.5 -98.5q82 0 149.5 29t115.5 79t73.5 118.5t25.5 150.5q0 18 -12 28.5t-29 10.5h-59q-20 -6 -33 -23l-8 -16v-7q0 -99 -56 -171q-59 -74 -169 -74q-109 0 -165 67.5t-60 172.5 q154 12 265 77.5t184 166t108.5 230.5t35.5 271q0 164 -38.5 297t-120.5 226.5t-207 144.5t-297 51t-297 -51t-207 -144.5t-121 -226.5t-39 -297zM236 737q0 131 29.5 240.5t94 189.5t165 124t241.5 44t244.5 -45t156.5 -102q35 -37 58.5 -93.5t38 -119t20.5 -126t6 -112.5 q0 -123 -30.5 -236.5t-95 -200.5t-164 -139t-236.5 -52q-135 0 -235.5 52t-165 139t-96 200.5t-31.5 236.5z" />
<glyph unicode="R" horiz-adv-x="1042" d="M164 39q4 -10 16.5 -22.5t22.5 -16.5h57q10 4 22.5 16.5t16.5 22.5v606h201q39 0 77.5 -38t76.5 -97t72 -132t63.5 -142.5t52 -129t39.5 -90.5l26 -16h31q8 0 22.5 1t29 4t23.5 10.5t9 21.5q0 12 -10 26l4 -4q-35 68 -73 157t-81 179t-90 170t-98 131q102 53 162.5 152.5 t60.5 216.5q0 104 -28.5 178t-84 120t-134.5 67.5t-177 21.5q-141 0 -278 -6q-8 -6 -17.5 -18.5t-13.5 -22.5v-1366zM293 793v548q20 0 40.5 1t41.5 1h104q135 0 217 -75.5t82 -214.5q0 -76 -22.5 -128.5t-64.5 -84t-99 -45t-127 -13.5q-43 0 -87 1t-85 10z" />
<glyph unicode="S" horiz-adv-x="989" d="M106 76q6 -20 25 -35q84 -29 171 -41t175 -12q86 0 165 20.5t139.5 65.5t95 113.5t34.5 164.5q0 125 -49 203t-123.5 130t-160.5 88t-161 79t-124 101.5t-49 156.5q0 61 22.5 103t60.5 70t87 40t102 12q49 0 83 -5t63.5 -13t61.5 -19.5t75 -23.5l-4 2q12 -4 20 -4 q16 0 25.5 12t9.5 27v63q-6 20 -25 35q-74 27 -153.5 37t-157.5 10q-82 0 -154.5 -21.5t-127 -64.5t-86 -109.5t-31.5 -154.5q0 -123 49 -199t122.5 -127t161 -88t161 -81t122.5 -105.5t49 -159.5q0 -63 -26.5 -108t-70.5 -74t-98.5 -42t-109.5 -13q-66 0 -129 13t-125 36 q-20 8 -37.5 19t-40.5 11q-16 0 -26.5 -12t-10.5 -26v-74z" />
<glyph unicode="T" horiz-adv-x="1138" d="M96 1380q0 -23 6.5 -46t34.5 -23q57 0 113.5 5t111.5 5h142v-1282q4 -10 16 -22.5t23 -16.5h55q10 4 22.5 16.5t16.5 22.5v1282h149q57 0 112.5 -3t111.5 -7l26 22l8 17v55q-4 12 -15 24.5t-23 16.5h-871q-12 -4 -23.5 -16.5t-15.5 -24.5v-25z" />
<glyph unicode="U" horiz-adv-x="1277" d="M96 1350q0 -209 3 -416t20 -416q10 -127 42 -226t92 -167t154.5 -102.5t231.5 -34.5q125 0 219 39t157.5 109.5t98.5 167.5t45 216q16 211 19.5 421t3.5 421v43q-4 12 -15.5 24.5t-23.5 16.5h-56q-12 -4 -24 -16.5t-16 -24.5v-311q0 -141 -1.5 -284.5t-17.5 -285.5 q-10 -86 -35.5 -160.5t-73 -131t-117 -89t-163.5 -32.5q-104 0 -174 29.5t-115 84t-68.5 131t-31.5 170.5q-21 201 -21 404v36q2 220 2 439q-4 12 -16 24.5t-25 16.5h-55q-12 -4 -23.5 -16.5t-15.5 -24.5v-55z" />
<glyph unicode="V" horiz-adv-x="1382" d="M98 1409q0 -8 16.5 -57t41 -118t54.5 -149.5t56.5 -154.5t47 -130.5t28.5 -76.5l252 -707l27 -16h63l27 16q12 31 42.5 106t73.5 176t93.5 221t100.5 242t98 235.5t84 203.5t58.5 146.5t22.5 62.5q0 16 -10 26.5t-27 10.5h-65l-27 -16q-125 -305 -250 -608.5t-248 -608.5 l-428 1217l-28 16q-12 0 -24.5 1t-24.5 1q-18 0 -36 -7t-18 -32z" />
<glyph unicode="W" horiz-adv-x="1910" d="M106 1403q0 -49 15.5 -98.5t25.5 -96.5q61 -297 127 -589.5t132 -589.5q8 -8 19 -16.5t21 -12.5h60q10 4 19.5 11t13.5 16q104 299 206.5 591.5t206.5 591.5l422 -1194l29 -16h59q10 4 20.5 11t18.5 16q43 207 89 411.5t91 411.5q4 18 14.5 63t24 103.5t28.5 122 t26.5 118t19.5 93.5t8 47q0 16 -10 32.5t-31 16.5h-57q-16 -8 -35 -27q-63 -289 -123.5 -575.5t-120.5 -575.5l-407 1151l-27 17h-67l-27 -17q-102 -289 -202.5 -575.5t-205.5 -575.5l-249 1151q-18 18 -35 27q-10 0 -20.5 1t-20.5 1q-23 0 -40.5 -8t-17.5 -37z" />
<glyph unicode="X" horiz-adv-x="1282" d="M96 35q0 -16 13.5 -25.5t27.5 -9.5h68l26 14q106 158 210 315.5t210 315.5l400 -633l24 -12h33q8 0 21.5 1t25.5 4t21.5 10.5t9.5 19.5q0 10 -30 61t-76 124t-101 159t-106.5 162.5t-89.5 138t-52 84.5q12 18 48 71.5t83 123t98.5 145.5t94.5 141.5t70.5 110.5t27.5 53 q0 16 -11.5 26.5t-27.5 10.5h-74l-24 -14l-359 -549l-342 551l-22 12l-51 2q-18 0 -37 -7t-19 -32q0 -4 26 -49t65.5 -110.5t88 -143.5t91.5 -148.5t76.5 -125t44.5 -70.5q-14 -23 -54.5 -82t-94.5 -137t-112.5 -164t-107.5 -159t-81 -125t-32 -60z" />
<glyph unicode="Y" horiz-adv-x="1046" d="M92 1411q0 -8 23.5 -63.5t59.5 -136.5t80 -176t84 -182t70.5 -153.5t41.5 -89.5v-571q4 -10 10 -17.5t12 -13.5l16 -8h58q10 4 22.5 16.5t16.5 22.5v575q10 23 41.5 88.5t72.5 152.5t86 182.5t82 176t61.5 136t24.5 61.5q0 16 -13 25.5t-28 9.5h-57l-25 -16 q-78 -166 -155.5 -332t-155.5 -334l-299 666l-26 16h-29q-16 0 -32.5 -2t-29 -10.5t-12.5 -22.5z" />
<glyph unicode="Z" horiz-adv-x="1196" d="M94 39q4 -10 10.5 -17.5t12.5 -13.5l16 -8h463q231 0 465 -6q10 4 21.5 13t17.5 18v34q0 23 -5 46.5t-34 23.5q-86 0 -173 -4t-173 -4h-449l821 1233v51q-4 12 -16 24.5t-24 16.5h-891q-12 -4 -23.5 -16.5t-15.5 -24.5q0 -10 -1 -18.5t-1 -18.5q0 -20 8 -37.5t33 -17.5 q193 0 380 2t379 8l-821 -1229v-55z" />
<glyph unicode="[" horiz-adv-x="466" d="M84 8l6 -16l16 -17l17 -6h219q14 0 27.5 10.5t13.5 26.5v43q-4 10 -14.5 22.5t-18.5 18.5q-33 4 -65.5 2t-65.5 2v1309l133 8q8 6 17.5 18.5t13.5 22.5v6q0 23 -5 49.5t-36 26.5h-119l-102 -2q-23 -8 -31 -23l-6 -16v-1485z" />
<glyph unicode="\" horiz-adv-x="819" d="M88 1405q129 -350 253 -695t257 -694l25 -16h43q20 0 42.5 5t22.5 34q-129 350 -253 696t-257 695l-24 16h-43q-20 0 -43 -6t-23 -35z" />
<glyph unicode="]" horiz-adv-x="462" d="M82 4q4 -12 15.5 -23.5t25.5 -11.5h219l16 6l23 23v1495q-10 29 -39 39l-102 2h-117q-16 0 -28.5 -11.5t-12.5 -27.5v-49q6 -16 27.5 -24.5t46 -11.5t49.5 -3h39v-1311l-131 -6q-8 -6 -17.5 -18.5t-13.5 -22.5v-45z" />
<glyph unicode="^" horiz-adv-x="1054" d="M92 1133q0 -20 12.5 -29.5t30.5 -9.5h64q84 78 165.5 154.5t163.5 154.5l330 -309h23q8 0 22.5 1t27.5 5t22.5 11.5t9.5 21.5q0 6 -24 32.5t-59.5 64.5t-78.5 81l-82 82t-71 68.5t-42 41.5v-2q-4 4 -14 8t-14 4h-111l-363 -350q-2 -4 -7 -15t-5 -15z" />
<glyph unicode="_" horiz-adv-x="1163" d="M-16 -360v-46q4 -12 16 -24t25 -16h1159q12 4 24.5 16t16.5 24v46l-8 16q-12 16 -33 22h-1159q-20 -6 -33 -22z" />
<glyph unicode="`" horiz-adv-x="557" d="M84 1569q0 -4 19.5 -36t48 -79t63.5 -102.5t66.5 -106.5t55 -89t32.5 -50l24 -14q8 0 15.5 -1t15.5 -1q18 0 33.5 7.5t15.5 30.5q0 6 -16.5 39t-41 79t-54 101.5t-57.5 104.5t-48 88t-29 53l-26 15h-74q-16 0 -29.5 -10.5t-13.5 -28.5z" />
<glyph unicode="a" horiz-adv-x="917" d="M90 295q0 -68 22.5 -125t64.5 -97t98.5 -62.5t123.5 -22.5q92 0 170 39t133 112l3 -100q4 -10 10 -17.5t12 -13.5l16 -8h43q12 4 24.5 15.5t16.5 23.5v657q0 88 -22.5 146.5t-66.5 92.5t-107.5 47t-145.5 13q-39 0 -94 -13t-106.5 -30.5t-86.5 -31.5l-36 -13l-12 -24v-31 q0 -20 5 -48t33 -28q6 0 36 15.5t72 35t92 35t99 15.5q98 0 154.5 -37t56.5 -144v-82q-59 0 -126.5 -1t-135 -8t-130 -25.5t-111 -54.5t-77 -91t-28.5 -139zM227 295q0 55 20.5 92t55.5 60.5t78 36t90 16.5q20 2 44 1t40 3q25 7 50 7q13 0 25.5 -2t24.5 -2q25 0 50 7 l-11 -20q0 -72 -14 -140.5t-48 -124t-91.5 -89.5t-143.5 -34q-39 0 -69.5 16.5t-53 42t-35 59.5t-12.5 71z" />
<glyph unicode="b" horiz-adv-x="1026" d="M92 35q0 -12 9.5 -25.5t23.5 -13.5h29q14 0 30 4q59 -8 118.5 -10t119.5 -2q123 0 218 48t160.5 129t99.5 186t34 220q0 211 -100.5 317.5t-315.5 106.5q-84 0 -160.5 -27.5t-136.5 -86.5v632q-4 10 -16 22.5t-23 16.5h-53q-12 -4 -22.5 -16t-14.5 -23v-1478zM221 113 v530q0 53 29 96t73 74t96 47.5t99 16.5q152 0 219.5 -80.5t67.5 -225.5q0 -86 -23.5 -170t-71.5 -149.5t-120 -105.5t-168 -40q-51 0 -101.5 1.5t-99.5 5.5z" />
<glyph unicode="c" horiz-adv-x="980" d="M92 514q0 -113 23.5 -209t77 -166.5t139.5 -110.5t211 -40q82 0 171 20.5t160 61.5l11 22v37q0 20 -5.5 38.5t-25.5 29.5q-10 0 -42 -14.5t-77 -31t-95 -31t-97 -14.5q-90 0 -150.5 35t-99.5 91.5t-55.5 130t-16.5 151.5t18.5 144.5t58.5 115.5t100.5 78t144.5 29 q39 0 79 -10.5t77.5 -22.5t69.5 -22.5t52 -10.5q16 0 26.5 11.5t10.5 27.5v68l-16 24q-70 29 -147 41t-152 12q-115 0 -199 -34.5t-140.5 -99t-84 -153.5t-27.5 -198z" />
<glyph unicode="d" horiz-adv-x="1038" d="M92 479q0 -106 23.5 -196t75 -156t132 -102.5t195.5 -36.5q90 0 169 41t134 110l2 -100q4 -10 10.5 -17.5t12.5 -13.5l16 -8h45q10 4 21.5 13.5t17.5 17.5v1482q-4 10 -10 17.5t-12 13.5l-17 8h-51q-10 -4 -22.5 -16t-16.5 -23v-528q-55 4 -110.5 7t-110.5 3 q-260 0 -382 -130t-122 -386zM221 479q0 188 89 293t286 105q55 0 111.5 -3.5t109.5 -15.5q0 -55 4 -133q3 -52 3 -106q0 -27 -1 -55q-2 -83 -15 -165t-46 -147.5t-91.5 -105.5t-150.5 -40q-84 0 -141 31t-92 82t-50.5 119t-15.5 141z" />
<glyph unicode="e" horiz-adv-x="1007" d="M92 524q0 -117 22.5 -215t75 -169.5t139.5 -111.5t216 -40q78 0 166 20.5t155 61.5l13 22v31q0 20 -5.5 47t-33.5 27q-6 0 -36 -14.5t-72 -31t-91 -31t-96 -14.5q-84 0 -143.5 28t-97.5 77t-58.5 114.5t-22.5 141.5q166 0 331 5t331 11q8 8 17 18.5t13 20.5q0 94 -18 180 t-61 153t-116 105.5t-181 38.5q-109 0 -193 -34.5t-140 -97t-85 -150.5t-29 -193zM223 588q10 133 96.5 213t219.5 80q59 0 103 -23.5t73.5 -62.5t46 -89.5t20.5 -103.5q-123 -10 -246.5 -12t-248.5 -2h-64z" />
<glyph unicode="f" horiz-adv-x="827" d="M160 872l10 -18l25 -20h104v-795q4 -10 16.5 -22.5t22.5 -16.5h51q10 4 22.5 16.5t16.5 22.5v795h309l17 8q6 6 12 13t10 17v46q-4 10 -13 21t-20 17h-317v207q0 45 8 86t28.5 72t54.5 48t87 17q37 0 75 -10t66 -33l21 -6q16 4 27.5 10.5t17.5 22.5v72l-16 24 q-43 23 -94.5 31t-98.5 8q-98 0 -157.5 -30.5t-93.5 -84t-45 -126t-11 -154.5q0 -39 2 -77t2 -77h-98q-12 -4 -24.5 -15t-16.5 -23v-46z" />
<glyph unicode="g" horiz-adv-x="933" d="M90 498q0 -86 17.5 -164t57.5 -136.5t106.5 -92t164.5 -33.5q84 0 156 40t123 103v-195q0 -61 -16.5 -123.5t-50.5 -111.5t-86 -81t-122 -32q-66 0 -121 18.5t-106 59.5q-4 4 -8 5t-8 5q-16 0 -31.5 -10t-15.5 -29v-77q6 -27 43.5 -44.5t85 -28.5t93.5 -15.5t68 -4.5 q102 0 178 41t126.5 110t75 157t24.5 180v893q-4 10 -14.5 22.5t-18.5 18.5q-59 12 -117.5 17t-118.5 5q-109 0 -197.5 -37.5t-152 -104.5t-99.5 -158t-36 -197zM219 498q0 78 25.5 147.5t71.5 120.5t113 81t146 30q66 -1 142 -17q0 -53 2 -122q1 -24 1 -47q0 -48 -3 -98 q-4 -75 -18.5 -146.5t-45 -129t-84 -92.5t-133.5 -35q-66 0 -107.5 28t-66 73t-34 99t-9.5 108z" />
<glyph unicode="h" horiz-adv-x="1005" d="M92 39q4 -10 10.5 -17.5t12.5 -13.5l16 -8h51q12 4 24.5 15.5t16.5 23.5v608q0 53 29 95t74 72t96 46.5t98 16.5q111 0 186.5 -57.5t75.5 -176.5v-604q4 -12 16.5 -23.5t24.5 -15.5h51l17 8q6 6 12 13.5t10 17.5v604q0 94 -28.5 160.5t-80.5 109.5t-124 62.5t-160 19.5 q-82 0 -160.5 -27.5t-136.5 -86.5v632q-4 12 -16 23.5t-25 15.5h-51l-16 -8q-6 -6 -12.5 -13t-10.5 -18v-1474z" />
<glyph unicode="i" horiz-adv-x="317" d="M80 1202l8 -16l16 -15l17 -6h78l16 6q15 8 23 31v78q-4 12 -16.5 23.5t-24.5 15.5h-78l-17 -8q-6 -6 -12 -13.5t-10 -17.5v-78zM92 39l10 -19l25 -20h59q10 4 20.5 13.5t16.5 17.5v915q-6 18 -24 33l-15 6h-53l-14 -6q-18 -14 -25 -33v-907z" />
<glyph unicode="j" horiz-adv-x="684" d="M86 -315v-64l14 -24q35 -23 79 -34.5t85 -11.5q113 0 177.5 50.5t96 127t39 170t7.5 179.5v868q-6 20 -23 33l-14 6h-53l-15 -6q-18 -14 -24 -33q0 -111 1 -217t1 -217v-434q0 -51 -3 -121t-20.5 -133.5t-56.5 -107.5t-113 -44q-29 0 -60.5 10.5t-51.5 32.5l-21 11 q-18 0 -31.5 -11.5t-13.5 -29.5zM442 1202q6 -23 23 -31l16 -6h76q10 2 18.5 7.5t14.5 11.5l8 18v78q-4 12 -16.5 23.5t-24.5 15.5h-76l-16 -8q-6 -6 -12.5 -13.5t-10.5 -17.5v-78z" />
<glyph unicode="k" horiz-adv-x="917" d="M90 39l10 -19l25 -20h57q10 4 22.5 16.5t16.5 22.5v428l486 -467h79q14 0 27.5 12.5t13.5 26.5q0 6 -35.5 45t-91 93t-122 117.5t-126 120t-106.5 99.5t-61 57l452 367l11 18q0 18 -11.5 31.5t-29.5 13.5h-78q-104 -86 -204.5 -171t-205.5 -171v857q-4 10 -16.5 22 t-22.5 16h-49q-12 -4 -24.5 -15t-16.5 -23v-1477z" />
<glyph unicode="l" horiz-adv-x="671" d="M143 512q0 -86 7.5 -179t39 -170t96 -126t177.5 -49q41 0 85 10t79 33l14 26v27q0 18 -3 34.5t-11.5 29t-22.5 12.5t-25.5 -8.5t-26.5 -18.5t-36.5 -18.5t-52.5 -8.5q-74 0 -113 44.5t-56.5 108t-20.5 133t-3 120.5q0 252 1 501t1 500q-4 10 -16 22.5t-23 16.5h-51 l-16 -8q-6 -6 -12.5 -13t-10.5 -18v-1001z" />
<glyph unicode="m" horiz-adv-x="1544" d="M100 39q4 -12 16.5 -23.5t24.5 -15.5h52q10 4 22 16.5t16 22.5v602q0 49 25 92t62.5 75t85 50.5t94.5 18.5q109 0 159 -67t50 -167v-604q4 -10 16 -22.5t22 -16.5h54q10 4 22.5 16.5t16.5 22.5v604q0 49 24.5 91t62.5 74t85 50.5t92 18.5q111 0 161 -64.5t50 -169.5v-604 q4 -10 16 -22.5t23 -16.5h51q12 4 24.5 15.5t16.5 23.5v604q0 166 -87 259t-255 93q-92 0 -173 -44t-132 -120q-47 76 -128 120t-171 44q-78 0 -147.5 -29.5t-123.5 -88.5l-4 77l-22 25l-17 6h-43l-16 -6q-18 -14 -25 -33v-907z" />
<glyph unicode="n" horiz-adv-x="1005" d="M92 39q4 -10 10.5 -17.5t12.5 -13.5l16 -8h51q12 4 24.5 15.5t16.5 23.5v623q0 47 32 85.5t77 67.5t96 45.5t92 16.5q111 0 186.5 -57.5t75.5 -176.5v-604q4 -12 16.5 -23.5t24.5 -15.5h51l17 8q6 6 12 13.5t10 17.5v604q0 92 -28.5 158.5t-80.5 109.5t-125 63.5 t-159 20.5t-165 -29.5t-136 -95.5l-4 84l-25 25l-16 6h-43l-16 -6q-16 -12 -23 -33v-907z" />
<glyph unicode="o" horiz-adv-x="1112" d="M94 498q0 -111 29 -204t87 -162t145 -106.5t204 -37.5t203 39t143.5 106.5t85 160.5t27.5 204q0 117 -26.5 209t-82 157.5t-142.5 100t-210 34.5q-121 0 -209 -34.5t-144.5 -100t-83 -158t-26.5 -208.5zM223 498q0 82 19.5 152.5t59.5 121.5t103.5 80t153.5 29 q92 0 154.5 -26t101.5 -73t55.5 -113.5t16.5 -150.5q0 -82 -17.5 -156.5t-55.5 -131t-101.5 -90.5t-155.5 -34q-86 0 -148.5 32t-104.5 85t-61.5 125t-19.5 150z" />
<glyph unicode="p" horiz-adv-x="1011" d="M92 -422q4 -12 14.5 -23.5t22.5 -15.5h51q20 6 33 23l8 16v430q47 -10 96.5 -15t98.5 -5q117 0 210 47t158.5 126t100.5 180t35 212q0 207 -102.5 326.5t-317.5 119.5q-78 0 -151 -30.5t-128 -85.5v63q-6 18 -24 33l-17 6h-51l-14 -6q-16 -12 -23 -33v-1368zM223 131v432 q0 61 17.5 118.5t53.5 101.5t87 71t119 27q78 0 133 -25t90 -68t51.5 -103t16.5 -132q0 -84 -24 -164t-72 -143.5t-117.5 -101.5t-161.5 -38q-49 0 -97.5 5.5t-95.5 19.5z" />
<glyph unicode="q" horiz-adv-x="1019" d="M92 481q0 -102 17.5 -192t62.5 -156.5t121 -105.5t192 -39q94 0 175 39t139 112v-561l8 -16q6 -6 13 -12.5t18 -10.5h53q10 4 19.5 12.5t17.5 16.5v1380q0 14 -10.5 24.5t-22.5 14.5q-20 6 -61 8t-86 2t-87.5 -1t-66.5 -1q-244 0 -373 -136t-129 -378zM221 481 q0 154 50.5 233t133 115.5t189 49t221.5 32.5q-12 -4 -15 -42q-2 -23 -2 -52q0 -20 1 -43q2 -57 3 -129v-21q0 -62 -5 -126q-6 -74 -22.5 -144.5t-51.5 -125t-92.5 -88.5t-143.5 -34q-80 0 -132 34t-81.5 87.5t-41 120t-11.5 133.5z" />
<glyph unicode="r" horiz-adv-x="675" d="M158 39q4 -12 16 -23.5t25 -15.5h51q10 4 22.5 16.5t16.5 22.5v592q0 49 19.5 92t53 74.5t77.5 49t93 17.5q20 0 40 -1t38 -7l21 2l20 12l11 21v59q-4 10 -12.5 20.5t-16.5 16.5q-18 4 -36.5 5t-37.5 1q-78 0 -147.5 -26.5t-124.5 -83.5v63q-6 18 -25 33l-14 6h-51 l-17 -6q-16 -12 -22 -33v-907z" />
<glyph unicode="s" horiz-adv-x="800" d="M88 61l16 -24q61 -25 131 -37t136 -12q61 0 122.5 14t110.5 45t79 81t30 122q0 86 -37 142.5t-91.5 94t-119 63t-118.5 53.5t-91 63.5t-37 93.5q0 37 16.5 59.5t42 36.5t57.5 19.5t60 5.5q33 0 65 -8.5t63.5 -17.5t62 -16.5t61.5 -7.5q14 0 23.5 13.5t9.5 25.5v58 q-4 10 -10 18t-13 17q-126 36 -255 36h-7q-57 0 -112.5 -13t-98.5 -42t-68.5 -74t-25.5 -110q0 -86 37 -142.5t91 -94.5t118.5 -63.5t119 -53t91.5 -62.5t37 -90q0 -41 -19.5 -69.5t-50.5 -46t-67.5 -25t-71.5 -7.5q-41 0 -79 10.5t-70.5 23t-57.5 22.5t-39 10 q-16 0 -28.5 -11t-12.5 -28v-72z" />
<glyph unicode="t" horiz-adv-x="843" d="M104 872l9 -18l24 -20h121v-527q0 -72 11.5 -130t41 -100t80.5 -65.5t131 -23.5q57 0 121 15t111 46l12 23v49v8q0 15 -5 29q-7 18 -32 18q-8 0 -29.5 -11t-50 -23.5t-62.5 -24t-67 -11.5q-41 0 -67.5 18.5t-42 48.5t-20.5 64.5t-5 69.5v527h313q10 4 22.5 16t16.5 22v46 q-4 10 -13 21t-19 17h-320v256l-10 19l-25 20h-47q-10 -4 -21.5 -13t-17.5 -17q-2 -66 -2 -134q0 -66 -4 -131h-115q-18 -6 -32 -24l-7 -14v-46z" />
<glyph unicode="u" horiz-adv-x="989" d="M92 399q0 -88 20.5 -163.5t64.5 -131t111.5 -86t164.5 -30.5q94 0 177 39t140 114l2 -102q4 -12 16.5 -23.5t24.5 -15.5h45l16 8q6 6 12.5 13.5t10.5 17.5v907q-6 20 -23 33l-16 6h-51l-16 -6q-16 -12 -23 -33v-262q0 -66 -1 -132.5t-1 -131.5q0 -63 -24.5 -120.5 t-67.5 -100.5t-100.5 -68t-120.5 -25q-66 0 -110 25t-70.5 66t-39 94t-12.5 108q0 139 1 276.5t3 276.5q0 12 -8 22.5t-22 10.5h-58l-16 -6l-23 -25q-6 -276 -6 -555z" />
<glyph unicode="v" horiz-adv-x="970" d="M92 950q0 -8 22.5 -72.5t57.5 -159.5t76 -207t79 -213t67.5 -179t39.5 -103l27 -16h43l24 16q8 18 37 93t68 177.5t82 217t79.5 212t60.5 164t24 70.5q0 16 -11.5 25.5t-27.5 9.5h-58l-26 -14q-133 -367 -271 -731l-262 731l-26 14l-52 2q-18 0 -35.5 -7t-17.5 -30z" />
<glyph unicode="w" horiz-adv-x="1472" d="M102 936l220 -907q6 -8 16 -16.5t20 -12.5h66l29 16q66 186 130 369.5t130 370.5l278 -740l27 -16h55q10 4 21.5 12t19.5 17q8 35 30.5 112.5t51.5 174t60.5 202t57 196.5t42 155.5t16.5 82.5q0 12 -14.5 22.5t-24.5 10.5h-43q-10 -2 -22.5 -11t-18.5 -16 q-53 -182 -103 -363t-106 -364l-276 740l-27 14h-47l-26 -14q-63 -182 -128 -361.5t-128 -361.5l-172 710l-23 21l-16 6q-8 0 -15.5 1t-15.5 1q-24 0 -48 -10q-18 -8 -18 -27q0 -6 2 -14z" />
<glyph unicode="x" horiz-adv-x="1044" d="M92 37q0 -16 12.5 -26.5t28.5 -10.5h68l24 12q76 100 145.5 203.5t147.5 204.5q78 -100 154 -200.5t147 -205.5l25 -14h53h8q15 0 27 6q16 8 20 31q-90 119 -177 238.5t-179 236.5q8 10 34.5 45t62.5 82t76 100.5t72.5 98.5t54.5 75.5t22 34.5q0 16 -11.5 26.5 t-27.5 10.5h-70l-23 -12q-63 -94 -130.5 -185.5t-137.5 -181.5q-68 92 -136.5 184.5t-133.5 184.5l-23 10h-51h-8q-38 0 -51 -35q80 -111 167 -217t162 -219q-8 -8 -37.5 -46t-68.5 -90t-82 -110.5t-80 -108.5t-60.5 -85t-23.5 -37z" />
<glyph unicode="y" horiz-adv-x="1118" d="M94 950q0 -6 24.5 -68.5t63.5 -155.5t85 -202.5t87 -209t74 -175.5t43 -100q-8 -25 -38 -84t-61.5 -125t-56 -121t-24.5 -69q0 -16 13 -24.5t28 -8.5h65l25 12q14 33 47 105.5t78 169t98 211t105.5 229.5t102.5 222.5t88 192.5t60.5 140t22.5 63q0 16 -12.5 24.5 t-26.5 8.5h-67l-27 -14q-84 -195 -167 -389.5t-175 -386.5l-326 776l-26 14l-50 2q-18 0 -35.5 -7t-17.5 -30z" />
<glyph unicode="z" horiz-adv-x="991" d="M92 39q4 -10 10.5 -17.5t12.5 -13.5l16 -8h729l17 8q6 6 12 13.5t10 17.5v43q-4 10 -10 17l-12 14l-17 8h-581l610 780v45l-6 17l-17 16l-16 6h-692l-17 -6q-18 -14 -24 -33v-41q6 -18 24 -33l17 -6h549l-615 -782v-45z" />
<glyph unicode="{" horiz-adv-x="497" d="M84 731q6 -20 22 -33l17 -8q39 0 50 -23.5t11 -56.5q0 -92 -6 -181t-6 -181q0 -41 1 -91.5t15.5 -95.5t44 -74.5t89.5 -29.5h53q20 8 31 18l8 19v47q-6 20 -23 33l-16 8q-37 0 -53.5 13.5t-16.5 49.5q0 98 6 192.5t6 190.5v54q0 33 -4 65.5t-13 60t-30 42.5 q16 14 27.5 32.5t11.5 40.5l4 594q0 6 8.5 8t18.5 3.5t20 1.5h15l16 8q6 6 12.5 13t10.5 17v50q-4 10 -10.5 17t-12.5 13l-16 8h-53q-55 0 -85 -24.5t-44.5 -63t-16.5 -84t-2 -86.5q0 -86 5 -170t5 -170q0 -20 1 -47.5t-3 -52t-17 -41t-42 -16.5l-17 -8q-16 -12 -22 -33v-29 z" />
<glyph unicode="|" horiz-adv-x="296" d="M80 -324l10 -18l25 -20h63q10 4 22.5 16t16.5 22v1837l-10 19l-25 20h-63q-10 -4 -22.5 -16t-16.5 -23v-1837z" />
<glyph unicode="}" horiz-adv-x="505" d="M84 -6l10 -21l23 -16h61q57 0 87 30.5t42 77t13.5 97.5t1.5 92q0 39 -2.5 96.5t-3.5 117.5t1 114.5t13 89.5q4 14 23.5 16t29.5 2l16 8q17 13 23 33v29l-10 20l-23 21q-12 0 -34.5 4t-24.5 20q-12 147 -13 299q0 152 -4 299q-2 59 -39.5 96t-97.5 37h-53l-17 -8 q-6 -6 -12 -13t-10 -17v-50q4 -10 13 -21t20 -17q37 0 52 -8.5t19.5 -26t2 -41t-2.5 -54.5q0 -29 -2 -75.5t-4 -101t-1 -113t7.5 -110.5t17.5 -93t34 -59q-18 -18 -28.5 -45t-17 -56t-7.5 -58.5t-1 -51.5q0 -37 3.5 -99.5t4.5 -129t-1.5 -126t-12.5 -88.5q-4 -12 -26 -12 h-31l-17 -8q-16 -12 -22 -33v-47z" />
<glyph unicode="~" horiz-adv-x="1077" d="M92 1260q0 -6 7 -17.5t17.5 -23t19.5 -21.5t16 -16q12 0 31.5 15t44 32.5t54 33t64.5 15.5q51 0 100.5 -14.5t98.5 -32t98 -31.5t102 -14q63 0 129 31.5t109 76.5l2 37l-31 49l-24 15q-14 0 -23.5 -8.5t-19.5 -18.5v2q-29 -29 -65 -48t-77 -19q-53 0 -102 14t-97 32.5 t-98.5 33t-101.5 14.5q-18 0 -60 -13.5t-85 -34t-76 -45t-33 -44.5z" />
<glyph unicode="&#xa1;" horiz-adv-x="303" d="M80 29q6 -20 22 -33l17 -8h57q12 4 23.5 16.5t15.5 24.5v1183q-4 10 -16.5 22.5t-22.5 16.5h-57l-17 -8q-6 -6 -12 -13t-10 -18v-1183zM80 1346q6 -14 20 -29l17 -8h69q10 4 20.5 12t16.5 16v80q-6 16 -20 31l-17 8h-69l-17 -8q-14 -14 -20 -31v-71z" />
<glyph unicode="&#xa2;" horiz-adv-x="980" d="M92 514q0 -94 19.5 -182t63.5 -159t114.5 -119t173.5 -62v-107q6 -20 22 -32l17 -7h57l16 7q16 12 23 32v103q72 4 143.5 25.5t132.5 56.5l11 22v37q0 20 -5.5 38.5t-25.5 29.5q-23 0 -33 -11l2 4q-49 -35 -107.5 -54t-117.5 -27v770q16 -4 51 -14.5t70 -20.5t64.5 -19.5 t37.5 -9.5q16 0 26.5 11.5t10.5 27.5v68l-16 24q-59 23 -119.5 36t-124.5 17v70q-6 20 -23 33l-16 6h-57l-17 -6q-16 -12 -22 -33v-74q-94 -16 -164 -59t-116 -106.5t-68.5 -144.5t-22.5 -171zM221 514q0 63 11.5 122.5t39 109t73.5 83t118 43.5v-757q-72 14 -118 54 t-73.5 96.5t-39 121t-11.5 127.5z" />
<glyph unicode="&#xa3;" horiz-adv-x="974" d="M92 39l8 -19l25 -20h717q18 6 32 25l7 14v24q0 23 -6.5 46.5t-34.5 23.5q-74 0 -149 -4t-148 -4h-281q70 123 113 262t35 281v18l313 -6l16 6l17 16l6 17v53l-8 21l-25 18h-338q-6 43 -19.5 83t-26.5 81t-23.5 82t-10.5 86q0 53 21.5 90t55.5 58.5t78 30.5t91 9 q33 0 65.5 -8t65.5 -18.5t64.5 -18.5t62.5 -8q14 0 25.5 12.5t11.5 26.5v57q-4 10 -12.5 20.5t-16.5 16.5q-66 23 -133 34t-135 11q-76 0 -144.5 -17.5t-120.5 -55t-83 -97t-31 -143.5q0 -88 28.5 -168t51.5 -164h-96l-17 -6q-18 -14 -24 -33v-49l10 -21l25 -18q31 0 61.5 1 t60.5 1q0 -76 -8 -154.5t-29.5 -153.5t-56.5 -144.5t-90 -127.5v-67z" />
<glyph unicode="&#xa5;" horiz-adv-x="1030" d="M92 1411q0 -8 20.5 -56t52.5 -119t69.5 -154t71.5 -156.5t60.5 -131t34.5 -75.5h-190l-16 -8q-6 -8 -11.5 -15.5t-9.5 -15.5v-45q4 -8 9 -15.5t12 -15.5l16 -8h227v-199h-227l-16 -8q-14 -14 -21 -31v-43q4 -10 9 -17t12 -15l16 -9h227v-235q4 -10 10.5 -17.5t12.5 -13.5 l16 -8h58q10 4 22 16.5t16 22.5v235h220q12 4 24 16.5t17 24.5v43l-9 17q-12 16 -32 22h-220v199h220q12 4 24 15.5t17 23.5v45q-4 12 -16.5 23.5t-24.5 15.5h-177q8 18 35 74.5t63 132t75.5 157.5t72.5 154t54.5 120t21.5 54q0 14 -11.5 24.5t-25.5 10.5h-59l-27 -16 q-76 -166 -150.5 -329t-152.5 -327l-291 656l-26 16h-29q-16 0 -32.5 -2t-29 -10.5t-12.5 -22.5z" />
<glyph unicode="&#xa6;" horiz-adv-x="1034" d="M92 -74q0 -16 4 -36.5t8 -36.5l15 -23q72 -37 153 -41l-6 -16q4 -135 75 -216t212 -81q135 0 210 84t81 213l-8 16q-10 10 -31 18h-45q-16 -6 -29 -18l-6 -16q0 -78 -44 -134.5t-128 -56.5q-86 0 -128 56.5t-42 134.5l-8 16l-4 2q82 12 135 54t84 102.5t43 132.5t12 143 v1180l-10 20l-25 21h-305q-12 -4 -24.5 -16.5t-16.5 -24.5v-45l10 -19l25 -20l215 -2v-1104q0 -53 -8 -107.5t-31.5 -97.5t-64.5 -70.5t-107 -27.5q-27 0 -51.5 9t-46 21.5t-40 21.5t-32.5 9q-18 0 -29.5 -13t-11.5 -32zM123 989q0 -59 41 -100t100 -41t101.5 41t42.5 100 t-42 101.5t-102 42.5q-59 0 -100 -42t-41 -102zM258 940v8q0 16 11.5 24.5t23.5 8.5t23.5 -8t11.5 -25l-2 -8q0 -16 -10.5 -25.5t-24.5 -9.5q-12 0 -22.5 9.5t-10.5 25.5zM657 989q0 -59 41 -100t101 -41q59 0 101 41t42 100t-42 101.5t-101 42.5t-100.5 -42t-41.5 -102z M807 940q0 14 9 24.5t26 10.5h8q16 0 24.5 -11.5t8.5 -23.5t-8.5 -23.5t-24.5 -11.5v2h-8q-16 0 -25.5 10.5t-9.5 22.5z" />
<glyph unicode="&#xa7;" horiz-adv-x="499" d="M84 78q0 -8 9 -20.5t21.5 -25t25 -21.5t20.5 -9q20 0 44.5 37t45 85t34 95t13.5 66q0 41 -7 82t-16 82q25 0 50.5 35.5t45 83.5t33 94t13.5 69q0 57 -14.5 112.5t-32 110t-31.5 109.5t-14 113q0 47 21.5 95t57.5 79l11 22q0 27 -13.5 39t-33.5 25l2 -4l-25 12 q-23 -4 -37 -12q-45 -47 -72.5 -119t-27.5 -137q0 -47 8 -93.5t23 -91.5l-13 6q-20 0 -37 -10q-47 -49 -73.5 -118.5t-26.5 -135.5q0 -59 13.5 -117.5t33.5 -115.5l-2 2q16 -53 30.5 -107.5t14.5 -109.5q0 -33 -10 -58.5t-24.5 -49t-31 -47.5t-28.5 -52zM205 733 q0 41 17.5 83t45.5 73q10 -39 19.5 -78t9.5 -80q0 -35 -17.5 -83t-46.5 -70q-10 39 -19 76.5t-9 78.5z" />
<glyph unicode="&#xa8;" horiz-adv-x="677" d="M86 1163q6 -20 23 -33l16 -8h86q18 6 33 25l6 16v88l-6 17l-17 16l-16 6h-86l-16 -6q-16 -12 -23 -33v-88zM428 1163l6 -16q14 -18 33 -25h86q10 4 21.5 13.5t17.5 17.5v96q-6 20 -23 33l-16 6h-86l-16 -6l-17 -16l-6 -17v-86z" />
<glyph unicode="&#xa9;" horiz-adv-x="1636" d="M102 721q0 -152 55.5 -285t153 -233.5t228.5 -157.5t284 -57q154 0 284 58t225 158.5t148.5 233.5t53.5 283t-54.5 284t-149.5 234t-225 158.5t-282 58.5q-154 0 -284.5 -58.5t-228 -157.5t-153 -233.5t-55.5 -285.5zM238 721q0 119 46 228.5t125.5 191.5t186 131 t227.5 49q123 0 227.5 -49t182.5 -132t122 -191.5t44 -227.5t-44 -227.5t-122 -190.5t-183.5 -131t-226.5 -49t-227.5 48t-186 131t-125.5 190.5t-46 228.5zM442 717q0 -96 25 -178t74 -141.5t124.5 -93.5t178.5 -34q68 0 140.5 16.5t133.5 47.5l15 28v37q0 10 -1.5 25.5 t-4.5 29t-12 23.5t-23 10q-6 0 -30 -13t-57.5 -28.5t-75.5 -27.5t-85 -12q-68 0 -116 26.5t-79 69.5t-46 99t-15 116q0 68 12 124t41 97t79 63.5t124 22.5q31 0 60.5 -8t57 -18.5t55 -18.5t56.5 -8q16 0 26.5 12t10.5 29v67q-4 10 -10 19.5t-15 17.5q-53 25 -117.5 34 t-123.5 9q-111 0 -187.5 -29.5t-124 -87t-69 -139.5t-21.5 -186z" />
<glyph unicode="&#xaa;" horiz-adv-x="579" d="M84 1083q0 -61 34 -110t97 -60h-80q-12 -4 -24.5 -16t-16.5 -25v-34l10 -21l25 -18h326q20 6 32 22l9 17v34l-11 21l-24 20h-164q23 4 44 13.5t38 23.5l10 -16l25 -19h37q20 6 32 23l9 16v330q0 100 -50.5 135t-142.5 35q-43 0 -91 -12t-83 -39l-12 -25v-24q0 -20 5 -41 t32 -21q4 0 16 6.5t16 8.5v-2q27 16 57.5 27t61.5 11q35 0 56.5 -9t21.5 -50v-20q-49 0 -101.5 -4.5t-95.5 -22.5t-70.5 -54t-27.5 -100zM199 1083q0 25 14 40.5t34.5 23.5t44 10t42.5 2l41 27q0 -31 -5 -60.5t-19.5 -53t-37 -39t-59.5 -15.5q-27 0 -41 20.5t-14 44.5z" />
<glyph unicode="&#xab;" horiz-adv-x="907" d="M90 758l4 -39l42 -42t72 -73t85 -85t84 -81t66.5 -61.5t31.5 -24.5q25 0 35 20.5t16 41.5l-20 45l22 -13l-8 19q-74 72 -146.5 141.5t-144.5 141.5l293 278l10 23q0 12 -3 27.5t-9 29.5t-16 24.5t-25 10.5q-8 0 -35.5 -23.5t-64.5 -59.5t-80 -79l-82 -82l-69.5 -69.5 t-43.5 -41.5q-6 -8 -14 -28zM375 758l4 -39q16 -18 47 -50t67.5 -70t76.5 -79t77 -75.5t67.5 -60.5t47.5 -34q29 0 42 32t13 54q0 8 -19.5 32t-50 54.5l-66.5 66.5t-69.5 67.5t-60.5 56t-37 35.5l293 278l12 27l-16 59q-6 8 -17.5 16.5t-21.5 12.5q-8 0 -35 -23.5 t-64.5 -59.5t-80.5 -79t-83 -82t-71 -69.5t-43 -43.5q-4 -6 -6 -13t-6 -13z" />
<glyph unicode="&#xac;" horiz-adv-x="903" d="M90 788q4 -12 15.5 -24t23.5 -16h553v-125q4 -12 15.5 -24.5t23.5 -16.5h53q12 4 23.5 16.5t15.5 24.5v211l-8 16q-6 6 -13.5 12t-17.5 8h-645q-10 -2 -17.5 -8t-13.5 -12l-8 -16v-46z" />
<glyph unicode="&#xad;" horiz-adv-x="641" d="M86 627l10 -21l23 -20h397q12 4 23.5 16.5t15.5 24.5v45l-10 20l-23 19h-397q-16 -8 -31 -23l-8 -16v-45z" />
<glyph unicode="&#xae;" horiz-adv-x="1671" d="M102 725q0 -152 57.5 -285t157 -234.5t232.5 -159.5t285 -58t285.5 58t233 158.5t158 234.5t58.5 286t-58.5 285t-159 232t-234.5 156.5t-283 57.5q-152 0 -284 -57.5t-232.5 -157.5t-158 -233.5t-57.5 -282.5zM238 725q0 119 48 227.5t130 191.5t189.5 131t228.5 48 q119 0 228 -48t191 -131t131.5 -191.5t49.5 -227.5q0 -121 -48.5 -229.5t-131.5 -191.5t-191.5 -132t-228.5 -49q-121 0 -229.5 49t-189.5 132t-129 191.5t-48 229.5zM578 283q4 -12 17 -24.5t26 -16.5h59q10 4 21.5 13t17.5 19v367h110q16 0 45 -51t59 -116.5t54.5 -126 t32.5 -81.5q14 -14 35 -24h86q12 0 27.5 12.5t15.5 26.5q0 2 -12.5 25.5t-28 52t-29.5 56t-18 38.5v-2q-23 57 -57.5 129.5t-75.5 117.5q59 35 96 97.5t37 132.5q0 143 -77 209.5t-216 66.5q-18 0 -53 -1t-71 -6t-64.5 -16.5t-36.5 -29.5v-868zM719 780v283q23 4 41 4h43 q68 0 108.5 -33.5t40.5 -105.5q0 -63 -40 -105.5t-103 -42.5h-90z" />
<glyph unicode="&#xaf;" horiz-adv-x="894" d="M90 1139q6 -18 25 -33l14 -6h637l14 6q19 15 25 33v47l-8 16q-6 6 -13.5 12.5t-17.5 10.5h-637q-10 -4 -17.5 -10.5t-13.5 -12.5l-8 -16v-47z" />
<glyph unicode="&#xb0;" horiz-adv-x="526" d="M84 1178q0 -78 51 -129.5t129 -51.5q76 0 127 52.5t51 128.5t-52 127t-128 51t-127 -51.5t-51 -126.5zM197 1178q0 29 19.5 49t47.5 20q29 0 46.5 -21t17.5 -48q0 -29 -18.5 -49.5t-47.5 -20.5t-47 20.5t-18 49.5z" />
<glyph unicode="&#xb1;" horiz-adv-x="854" d="M90 786q4 -10 9 -17t12 -15l16 -6h231l-2 -230q4 -10 10.5 -17t12.5 -14l16 -8h47q10 4 22.5 16.5t16.5 22.5l-2 230h230l16 6q19 14 25 32v48l-9 16l-16 14l-16 6h-230l2 232q-4 12 -16 22.5t-23 14.5h-47q-12 -4 -23.5 -14.5t-15.5 -22.5l2 -232h-231l-16 -6 q-14 -14 -21 -30v-48zM104 391q4 -12 16.5 -23.5t24.5 -15.5h582l16 8l21 23v55q-4 8 -9 15.5t-12 15.5l-16 8h-582q-12 -4 -24 -15t-17 -24v-47z" />
<glyph unicode="&#xb3;" horiz-adv-x="1019" d="M92 39q4 -10 16.5 -22.5t22.5 -16.5q371 6 743 0l17 8l18 25v237q-6 20 -22 33l-17 8h-45l-20 -10l-21 -25v-149q-127 -6 -254 -6h-292q10 35 36.5 106.5t63.5 164.5t81 201.5t88 218.5t85 213t72.5 184t51 135.5t19.5 64.5q0 16 -11 26.5t-28 10.5h-61l-25 -16 l-518 -1336v-55zM109 989q0 -59 40.5 -100t100.5 -41q59 0 101 41t42 100t-42 101.5t-101 42.5t-100 -42t-41 -102zM246 -328q0 -74 48 -124t124 -50q23 0 53.5 10.5t58 26.5t47 39.5t19.5 50.5q0 20 -21.5 33.5t-37.5 17.5q-23 0 -43 -14q-20 -33 -60 -33q-25 0 -36 20.5 t-11 43.5q0 25 12.5 48t29.5 48t33.5 47.5t26.5 44.5q0 16 -11 20.5t-21 8.5q-18 20 -49 20l-21 -10q-18 -20 -43 -51t-46.5 -65.5t-36.5 -69.5t-15 -62zM295 946l12 15l15 -15l-15 -14zM643 989q0 -59 41 -100t100 -41t101.5 41t42.5 100t-42 101.5t-102 42.5 q-59 0 -100 -42t-41 -102zM829 946l13 15l14 -15l-14 -14z" />
<glyph unicode="&#xb4;" horiz-adv-x="600" d="M86 1130q0 -16 12.5 -27t28.5 -11h35q10 6 40.5 39.5t69.5 81t82 102.5t78 102t58.5 80t23.5 39q0 37 -39 37h-76l-22 -10q-8 -14 -33 -49t-57.5 -81.5t-67.5 -96.5t-64.5 -93t-49 -74.5t-19.5 -38.5z" />
<glyph unicode="&#xb5;" horiz-adv-x="989" d="M92 326q0 -160 1 -321t3 -322q4 -10 10.5 -17.5t12.5 -13.5l16 -8h27q20 0 43.5 5t23.5 34q0 92 -2 184t-8 184q47 -35 112.5 -51t123.5 -16q115 0 196.5 33.5t136 95t80 149.5t25.5 197l4 487q-6 20 -23 33l-16 6h-53l-17 -6q-18 -14 -24 -33v-510q0 -68 -22.5 -128 t-62.5 -106t-97.5 -73t-126.5 -27q-63 0 -107.5 33t-72 82t-40 107.5t-12.5 111.5q0 129 3 255t3 255q0 39 -39 39h-53l-16 -6l-23 -25q-6 -246 -6 -489v-139z" />
<glyph unicode="&#xb6;" horiz-adv-x="878" d="M90 1055q0 -211 113.5 -324t324.5 -113l-2 -579l6 -14q14 -18 33 -25h29q18 6 33 25l6 14v1292h43v-1292q4 -12 16.5 -23.5t24.5 -15.5h33l16 8q6 6 12 13.5t10 17.5v1370q-6 20 -22 33l-16 8q-57 0 -113.5 3t-114.5 3q-209 0 -320.5 -92t-111.5 -309zM223 1055 q0 150 78 215t221 65h4v-596q-145 2 -224 88t-79 228z" />
<glyph unicode="&#xb7;" horiz-adv-x="333" d="M80 801l10 -21l25 -20h98q12 4 24.5 16.5t16.5 24.5v94l-10 20l-25 19h-98q-20 -6 -33 -23l-8 -16v-94z" />
<glyph unicode="&#xb8;" horiz-adv-x="550" d="M84 -246v-61l16 -25q35 -20 76 -29.5t82 -9.5q39 0 77 9.5t67.5 29t47 51t17.5 76.5q0 31 -14.5 56.5t-38 45t-51 33t-54.5 21.5l2 -2l-51 18q6 16 22.5 42t16.5 40q0 29 -25.5 35t-48.5 6l-26 -12q-18 -33 -38 -73t-20 -77q0 -33 30 -51t64.5 -30.5t64.5 -23.5t30 -32 q0 -29 -27 -36t-47 -7q-43 0 -78 22.5t-57 22.5q-14 0 -25.5 -12t-11.5 -27z" />
<glyph unicode="&#xb9;" horiz-adv-x="1218" d="M96 174q0 -104 55.5 -145t153.5 -41q20 0 48 3t55.5 11t51 19.5t40.5 27.5q4 12 14 39t10 39q0 10 -9 19.5t-19 13.5l-35 -10h2q-29 -18 -61.5 -31t-67.5 -13q-106 0 -107 103q0 45 19.5 119.5t50.5 163t66.5 181.5t68.5 173t57.5 138t32.5 77q45 -76 119 -109.5 t160 -33.5q74 0 134 24.5t101 69.5t63.5 105t22.5 134q0 10 -12 23.5t-23 13.5h-53l-16 -6l-14 -14l-7 -17q0 -90 -50 -154.5t-146 -64.5q-98 0 -147.5 63.5t-49.5 155.5l-4 9l98 245q4 10 -8 28.5t-22 18.5h-60l-33 -24l-393 -1008q-31 -78 -58.5 -169t-27.5 -177z M479 -135q0 -152 84 -243t238 -91q74 0 133 24.5t101 69.5t64.5 106.5t22.5 133.5q0 14 -12 24.5t-23 14.5h-53q-23 -8 -30 -23l-7 -16q0 -90 -50 -154.5t-146 -64.5q-98 0 -147.5 63.5t-49.5 155.5q-4 12 -14 23.5t-23 15.5h-51q-10 -4 -23.5 -14.5t-13.5 -24.5z" />
<glyph unicode="&#xba;" horiz-adv-x="679" d="M86 1184q0 -49 11.5 -94.5t36 -82t61 -61t90.5 -33.5h-113q-12 -4 -24.5 -16t-16.5 -25v-34l8 -17q12 -16 33 -22h334q20 6 33 22l8 17v34q-4 12 -16.5 24.5t-24.5 16.5h-123q49 8 89 34t66.5 64t41 84t14.5 93q0 57 -18.5 106t-51 85t-81 56.5t-105.5 20.5 q-131 0 -191.5 -73.5t-60.5 -198.5zM199 1184q0 61 36.5 111.5t102.5 50.5q31 0 54.5 -14.5t40 -38t24.5 -51t8 -54.5q0 -29 -7 -58.5t-22.5 -54t-40 -41t-57.5 -16.5t-58.5 14.5t-44 38t-27.5 53t-9 60.5z" />
<glyph unicode="&#xbb;" horiz-adv-x="890" d="M92 432l25 -63l26 -17q8 0 39 27t74 65.5t90 84.5t88 87t67.5 71t28.5 34l-4 -6l-16 45l25 -23v21l-13 28l-350 344l-22 11q-29 -4 -39.5 -23.5t-14.5 -42.5v2q-4 -8 -4 -12v-21q4 -12 46 -54t94.5 -91t100.5 -93t64 -58l-293 -279q-8 -14 -12 -37zM356 426 q4 -8 8.5 -20.5t10.5 -24.5t14 -21.5t21 -9.5q6 0 36.5 25.5t73.5 65.5t90 86t88 88t69 72t30 36v-2q4 8 4 16v21q-16 31 -64.5 82t-105 106t-110.5 105.5t-85 78.5l-22 11q-29 -4 -38 -23.5t-16 -42.5v2q-4 -8 -4 -12v-21q4 -12 46 -53t93.5 -90t99.5 -93t64 -60l-294 -283 l-9 -19v-20zM530 721q2 0 2 2zM793 717v2q2 0 2 2q0 -2 -2 -4z" />
<glyph unicode="&#xbc;" horiz-adv-x="1302" d="M96 1108q0 -59 42 -100t102 -41q59 0 101 41t42 100t-42 101t-101 42t-101.5 -42t-42.5 -101zM178 174q0 -104 55.5 -145t153.5 -41q45 0 103.5 14t91.5 47q6 12 16 38t10 40q0 10 -10 19.5t-20 13.5l-33 -10h2q-31 -18 -63.5 -31t-67.5 -13q-104 0 -105 103 q0 47 19.5 122t49.5 162t65.5 178t68.5 170t57.5 138t34.5 82q43 -78 117 -110.5t160 -32.5q74 0 134 24.5t102 69.5t64.5 105t22.5 134q0 10 -13 23.5t-24 13.5h-53l-16 -6q-14 -14 -21 -31q0 -90 -50 -154.5t-146 -64.5q-98 0 -147.5 63.5t-49.5 155.5l-4 9q6 14 21.5 52 t33 81t30.5 79.5t13 47.5q0 8 -11 20t-19 12h-60l-33 -24l-393 -1008q-31 -78 -58.5 -169t-27.5 -177zM219 1102q0 25 17.5 42t42.5 17t42 -17t17 -42t-17.5 -42.5t-41.5 -17.5q-25 0 -42.5 17.5t-17.5 42.5zM561 -135q0 -152 84 -243t238 -91q74 0 133 24.5t102 69.5 t65.5 105.5t22.5 134.5q0 14 -13 24.5t-24 14.5h-53l-16 -8q-14 -14 -21 -31q0 -90 -50 -154.5t-146 -64.5q-98 0 -147.5 63.5t-49.5 155.5l-6 16q-10 14 -31 23h-51q-10 -4 -23.5 -14.5t-13.5 -24.5z" />
<glyph unicode="&#xbd;" horiz-adv-x="1300" d="M96 367q0 -106 31 -179t87 -117t135 -63.5t177 -19.5q76 0 163 16t153 57l12 25v31q0 20 -5 49t-34 29q-10 0 -41 -13.5t-71.5 -30t-88 -29.5t-90.5 -13q-135 0 -214 56t-79 202q0 80 45.5 150.5t113 127.5t146 100t144.5 68l14 27v41q41 -27 89 -37t98 -10 q74 0 133 24.5t102 69.5t65.5 105t22.5 134q0 14 -13 24.5t-24 14.5h-53l-16 -8q-14 -14 -21 -31q0 -90 -50 -154.5t-146 -64.5q-66 0 -113 33t-70 92l4 150q-4 10 -13 21t-19 18h-37q-20 0 -47 -5.5t-27 -33.5v-162q0 -80 2 -160q-72 -35 -152.5 -90t-150.5 -125 t-116 -150.5t-46 -168.5zM139 1010q0 -59 41 -101.5t101 -42.5q59 0 101 42.5t42 101.5t-42 101t-101 42t-100.5 -42t-41.5 -101zM193 1016q0 14 10 24.5t24 10.5t24.5 -10.5t10.5 -24.5h-2q0 -14 -9 -24.5t-24 -10.5q-14 0 -24 10t-10 25zM559 -119q0 -152 84 -243t238 -91 q74 0 134 25t102 70t64.5 105t22.5 134q0 14 -13 23.5t-24 13.5h-53q-27 -10 -37 -37q0 -90 -50 -154.5t-146 -64.5q-98 0 -147.5 63.5t-49.5 155.5l-6 17q-14 14 -31 20h-51q-10 -4 -23.5 -13t-13.5 -24z" />
<glyph unicode="&#xbe;" horiz-adv-x="1208" d="M96 39l6 -14q14 -18 33 -25h746q10 4 17 9t15 11l9 17v291q-4 12 -16.5 24.5t-24.5 16.5h-45l-21 -11l-18 -24v-205q-61 -4 -123 -6t-123 -2q-68 0 -136.5 1t-135.5 1q47 55 111.5 125.5t131 150.5t132 166t116.5 173t83 170t32 159q0 215 -102.5 300t-307.5 85 q-76 0 -149.5 -12.5t-145.5 -32.5l-20 -23l-6 -16v-27q0 -14 2 -30.5t9 -27.5t21 -11q35 0 71 8t72 19.5t71.5 19.5t72.5 8q131 0 206 -61.5t75 -198.5q0 -72 -36 -155t-94.5 -170t-131 -176t-146.5 -172t-139.5 -154.5t-110.5 -126.5v-74zM293 793q0 -59 42 -101.5 t101 -42.5t100.5 42.5t41.5 101.5t-41 100t-101 41q-59 0 -101 -41t-42 -100zM350 723q0 14 10.5 24.5t24.5 10.5t24.5 -10.5t10.5 -24.5h-2q0 -14 -9.5 -24.5t-23.5 -10.5t-24.5 10.5t-10.5 24.5zM422 -135q0 -152 84 -243t237 -91q74 0 133.5 24.5t101.5 69.5t64.5 106.5 t22.5 133.5q0 14 -12.5 24.5t-22.5 14.5h-53q-29 -10 -39 -39q0 -90 -49 -154.5t-146 -64.5q-98 0 -147 63.5t-49 155.5q-4 12 -14.5 23.5t-22.5 15.5h-53q-10 -4 -22.5 -14.5t-12.5 -24.5zM827 793q0 -59 42 -101.5t102 -42.5q59 0 100 42.5t41 101.5t-41 100t-100 41 t-101.5 -41t-42.5 -100zM899 737q0 14 9.5 24.5t25.5 10.5h8q16 0 24.5 -11t8.5 -24q0 -12 -8.5 -23.5t-24.5 -11.5v3h-8q-16 0 -25.5 10t-9.5 22z" />
<glyph unicode="&#xbf;" horiz-adv-x="940" d="M90 367q0 -104 31 -177t87 -118t135 -64.5t177 -19.5q76 0 163 16t153 57l12 25v31q0 20 -5 49t-34 29q-10 0 -40 -13.5t-72 -30t-89 -29.5t-90 -13q-135 0 -214 56t-79 202q0 80 45 150.5t113 127.5t146.5 100t144.5 68l14 27l8 383q-4 10 -13 21t-19 18h-37 q-20 0 -47 -5.5t-27 -33.5v-162q0 -80 4 -160q-72 -35 -152.5 -90t-151.5 -125t-117 -150.5t-46 -168.5zM547 1346q4 -8 9 -15.5l9 -13.5l17 -8h71l17 8l18 20v80q-8 20 -18 31l-17 8h-71l-17 -8q-10 -10 -18 -31v-71z" />
<glyph unicode="&#xc0;" horiz-adv-x="1329" d="M96 35q2 -16 14.5 -25.5t28.5 -9.5h62l26 16q100 264 195 535h487l195 -535l26 -16l50 -2q18 0 34.5 7t16.5 30q0 10 -16.5 60t-42 122t-55.5 155t-58.5 158.5t-50 136t-29.5 83.5l-238 680l-28 16h-86l-27 -16q-123 -352 -249 -698.5t-255 -696.5zM451 1903q0 -4 18 -36 t48 -79t63.5 -102.5t65.5 -106.5t55.5 -89t31.5 -50l25 -13h33q20 -2 33.5 6t13.5 31q0 4 -16.5 36t-42 80t-56.5 104.5t-58.5 106.5t-49 89t-27.5 51l-23 11h-76q-39 0 -38 -39zM463 676l209 569l198 -569h-407z" />
<glyph unicode="&#xc1;" horiz-adv-x="1329" d="M96 35q2 -16 14.5 -25.5t28.5 -9.5h62l26 16q100 264 195 535h487l195 -535l26 -16l50 -2q18 0 34.5 7t16.5 30q0 10 -16.5 60t-42 122t-55.5 155t-58.5 158.5t-50 136t-29.5 83.5l-238 680l-28 16h-86l-27 -16q-123 -352 -249 -698.5t-255 -696.5zM463 676l209 569 l198 -569h-407zM512 1487q0 -16 12.5 -27.5t28.5 -11.5h41l22 10q35 37 78 91.5t87 114.5t85 119.5t74 104.5q0 41 -39 41h-76l-22 -12q-8 -12 -33 -47t-57.5 -80t-67.5 -97.5t-64.5 -95.5t-49 -74.5t-19.5 -35.5z" />
<glyph unicode="&#xc2;" horiz-adv-x="1329" d="M96 35q2 -16 14.5 -25.5t28.5 -9.5h62l26 16q100 264 195 535h487l195 -535l26 -16l50 -2q18 0 34.5 7t16.5 30q0 10 -16.5 60t-42 122t-55.5 155t-58.5 158.5t-50 136t-29.5 83.5l-238 680l-28 16h-86l-27 -16q-123 -352 -249 -698.5t-255 -696.5zM254 1460 q0 -18 9 -30.5t30 -12.5h65q164 160 332 307l330 -307h20q20 0 51 5t31 34q0 4 -23.5 30.5t-59 64.5t-78.5 82t-83 83t-71 69t-41 40v-2q-4 4 -13.5 8t-13.5 4h-104q-10 -6 -42 -32.5t-75 -66.5t-89 -85t-85 -85t-64.5 -69t-25.5 -37zM463 676l209 569l198 -569h-407z" />
<glyph unicode="&#xc3;" horiz-adv-x="1329" d="M96 35q2 -16 14.5 -25.5t28.5 -9.5h62l26 16q100 264 195 535h487l195 -535l26 -16l50 -2q18 0 34.5 7t16.5 30q0 10 -16.5 60t-42 122t-55.5 155t-58.5 158.5t-50 136t-29.5 83.5l-238 680l-28 16h-86l-27 -16q-123 -352 -249 -698.5t-255 -696.5zM324 1546q4 -6 6 -12 t6 -10l-2 2q8 -16 21.5 -28.5t31.5 -12.5l16 8q29 29 67 58.5t81 29.5q45 0 87 -14.5t84 -30.5t85 -30.5t90 -14.5q59 0 117.5 32.5t97.5 75.5l2 35l-29 47l-24 15q-12 0 -27.5 -13.5t-35 -30t-44 -30.5t-57.5 -14q-45 0 -87 14t-84 32.5t-85 33t-90 14.5q-66 0 -126 -39 t-101 -86v-31zM463 676l209 569l198 -569h-407z" />
<glyph unicode="&#xc4;" horiz-adv-x="1329" d="M96 35q2 -16 14.5 -25.5t28.5 -9.5h62l26 16q100 264 195 535h487l195 -535l26 -16l50 -2q18 0 34.5 7t16.5 30q0 10 -16.5 60t-42 122t-55.5 155t-58.5 158.5t-50 136t-29.5 83.5l-238 680l-28 16h-86l-27 -16q-123 -352 -249 -698.5t-255 -696.5zM422 1505 q4 -12 15.5 -24.5t23.5 -16.5h86l16 9l21 22v98q-6 20 -23 33l-16 8h-86q-12 -4 -22.5 -16t-14.5 -25v-88zM463 676l209 569l198 -569h-407zM762 1505q4 -12 16.5 -24.5t24.5 -16.5h84q12 4 24.5 16.5t16.5 24.5v86l-10 21l-25 20h-92l-17 -8q-16 -12 -22 -33v-86z" />
<glyph unicode="&#xc5;" horiz-adv-x="1329" d="M96 35q0 -16 14.5 -25.5t28.5 -9.5h62l26 16q100 264 195 535h487l195 -535l26 -16l50 -2q18 0 34.5 7t16.5 30q0 4 -17.5 58t-48 139t-68.5 195t-80 225.5t-83 231t-76 213t-60.5 169t-35.5 100.5q37 23 56.5 62.5t19.5 80.5q0 70 -48.5 117t-117.5 47q-70 0 -117 -47 t-47 -117q0 -41 17.5 -80.5t54.5 -62.5q-10 -27 -36 -96.5t-60.5 -166.5t-78 -214t-86.5 -234.5t-82.5 -228.5t-71.5 -197t-50.5 -139t-18.5 -55zM463 676l209 569l200 -569h-409zM616 1509q0 25 17.5 40.5t40.5 19.5q25 4 46.5 -5t31.5 -32q6 -16 -0.5 -31.5t-18.5 -28 t-28.5 -19.5t-32.5 -3q-23 4 -39.5 20.5t-16.5 38.5z" />
<glyph unicode="&#xc6;" horiz-adv-x="1617" d="M102 33q0 -14 13.5 -23.5t25.5 -9.5h64l26 16q76 172 152 340t154 340h270l6 -657q4 -10 14.5 -22.5t22.5 -16.5q311 0 625 -6l16 8q6 6 12 13.5t10 17.5q0 10 1.5 20.5t1.5 20.5q0 23 -8.5 40t-32.5 17q-133 0 -264.5 -4t-264.5 -4l-6 573h270q25 0 50.5 -1t50.5 -1l8 6 q12 0 33.5 5.5t21.5 23.5v49l-8 17q-12 16 -33 22h-393q0 119 -2 238t-2 237v31h522q12 0 18.5 9t9.5 22.5t4 27t1 21.5q-8 23 -23 35l-16 8h-694l-27 -16q-12 -27 -47 -101t-81 -175t-101.5 -224t-110.5 -246t-107.5 -239.5t-92 -207t-64.5 -146.5t-25 -58zM588 817 q53 121 106.5 240t108.5 237q0 -100 2 -198.5t2 -198.5v-80h-219z" />
<glyph unicode="&#xc7;" horiz-adv-x="1366" d="M98 737q0 -139 32 -264t100.5 -223t174 -164t252.5 -88q-4 -16 -9 -33.5t-5 -36.5q0 -33 28.5 -51t64.5 -31.5t64.5 -24.5t28.5 -30q0 -27 -25.5 -35t-45.5 -8q-49 0 -83 22.5t-52 22.5q-16 0 -26.5 -11t-10.5 -28v-61l12 -25q72 -39 160 -39q39 0 76.5 9.5t66.5 29 t46.5 51t17.5 76.5q0 37 -20.5 65.5t-51.5 49t-65.5 35t-65.5 22.5l8 23q57 0 119.5 5t125 15t122 27.5t112.5 42.5l17 22l2 52q0 18 -7.5 33.5t-29.5 15.5q-8 0 -21 -4h2q-102 -35 -207.5 -62.5t-213.5 -27.5q-141 0 -246 49t-174.5 133t-103.5 198.5t-34 247.5 q0 141 32 252t99.5 187.5t173 117.5t253.5 41q102 0 197 -21.5t192 -53.5l-9 6q4 -2 12.5 -5.5t10.5 -3.5q16 0 28.5 10.5t12.5 26.5v68l-16 24q-104 41 -211 55.5t-217 14.5q-358 0 -525.5 -184.5t-167.5 -534.5z" />
<glyph unicode="&#xc8;" horiz-adv-x="888" d="M90 39q4 -10 16.5 -22.5t22.5 -16.5q158 0 314.5 -1t314.5 -5q10 4 22.5 16.5t16.5 22.5v12v27q0 16 -3 29.5t-12.5 23.5t-25.5 10q-68 0 -135.5 -5t-135.5 -5h-135q-33 0 -63.5 1t-63.5 1v559h279q18 0 60 -4t85 -4t76 8t33 33v53q-6 18 -25 33l-16 6h-492v510h262 q61 0 124 -4t124 -4q39 0 39 39v53l-6 16l-14 17l-17 8h-203q8 12 9 24q0 6 -16.5 39t-41 80t-54.5 102.5t-57.5 105.5t-48 88t-28.5 52l-25 13h-75q-41 0 -41 -39q0 -2 18 -35t48 -80t63.5 -103.5t65.5 -106.5t55.5 -88t31.5 -50l4 -2h-311q-12 -4 -23.5 -16.5t-15.5 -24.5 q6 -684 0 -1366z" />
<glyph unicode="&#xc9;" horiz-adv-x="888" d="M90 39q4 -10 16.5 -22.5t22.5 -16.5q158 0 314.5 -1t314.5 -5q10 4 22.5 16.5t16.5 22.5v12v27q0 16 -3 29.5t-12.5 23.5t-25.5 10q-68 0 -135.5 -5t-135.5 -5h-135q-33 0 -63.5 1t-63.5 1v559h279q16 0 49 -3t63 -3q33 0 57.5 8t24.5 31v53q-6 18 -24 33l-17 6h-432v510 h262q61 0 124 -4t124 -4q39 0 39 39v53l-6 16l-14 17l-17 8h-393q8 4 37 37t67.5 80t81.5 102t79 103.5t59.5 82t23.5 37.5q0 16 -10 27.5t-27 11.5h-78l-18 -10q-10 -12 -34.5 -46t-58.5 -80t-70 -96t-65.5 -94.5t-49 -76t-19.5 -39.5q0 -35 35 -39h-166 q-12 -4 -23.5 -16.5t-15.5 -24.5q6 -684 0 -1366z" />
<glyph unicode="&#xca;" horiz-adv-x="1054" d="M92 1456q0 -18 11.5 -27.5t29 -11.5t34.5 -1t30 1q-2 -2 -2 -57t-1 -144.5t-1 -205.5v-238t1 -243.5t1 -221.5v-172v-96q2 -10 8 -17.5t12 -13.5l16 -8q158 0 314.5 -1t314.5 -5q10 4 21.5 13t17.5 18v45q0 23 -7 44t-36 21q-68 0 -135.5 -5t-134.5 -5h-209 q-14 0 -26.5 1t-26.5 1v559h278q18 0 60.5 -4t85.5 -4t75.5 8t32.5 33v53l-6 16l-16 17l-17 6h-493v510h264q61 0 123.5 -4t124.5 -4q16 0 28.5 11t12.5 28v32q0 25 -5 33h25q16 0 30.5 3t25 11.5t10.5 24.5q0 4 -24 30.5t-59.5 64.5t-78.5 81t-83 82t-71 68.5t-41 40.5 q-4 2 -14 6t-14 4h-111l-363 -348zM227 1446q76 68 151 137.5t150 138.5l299 -276h-600z" />
<glyph unicode="&#xcb;" horiz-adv-x="888" d="M90 39q4 -10 16.5 -22.5t22.5 -16.5q158 0 314.5 -1t314.5 -5q10 4 22.5 16.5t16.5 22.5v12v27q0 16 -3 29.5t-12.5 23.5t-25.5 10q-68 0 -135.5 -5t-135.5 -5h-135q-33 0 -63.5 1t-63.5 1v559h279q18 0 60 -4t85 -4t76 8t33 33v53q-6 18 -25 33l-16 6h-492v510h262 q61 0 124 -4t124 -4q39 0 39 39v53l-6 16l-14 17l-17 8h-606q-12 -4 -23.5 -16.5t-15.5 -24.5q6 -684 0 -1366zM162 1507q6 -20 22 -32l17 -9h86q12 4 23.5 16.5t15.5 24.5v88q-4 12 -15.5 24.5t-23.5 16.5h-86l-17 -8q-16 -12 -22 -33v-88zM502 1507q4 -12 15 -24.5 t24 -16.5h86l16 9q17 12 23 32v86q-6 20 -23 33l-16 8h-86q-12 -4 -23.5 -16t-15.5 -25v-86z" />
<glyph unicode="&#xcc;" horiz-adv-x="557" d="M84 1890q0 -4 18.5 -34.5t46 -75.5t60.5 -99.5t62.5 -102.5t53 -84t29.5 -48h-39q-12 -4 -23 -16.5t-16 -24.5v-1366q4 -10 16.5 -22.5t22.5 -16.5h54q10 4 22 16.5t17 22.5v1366l-2 6q23 -2 45 3t22 36q0 6 -16.5 39t-42 81t-55 103.5t-57.5 105.5t-49.5 87t-27.5 49 l-24 12h-74q-16 0 -29.5 -10t-13.5 -27z" />
<glyph unicode="&#xcd;" horiz-adv-x="600" d="M86 1448q0 -16 11.5 -28.5t27.5 -12.5h35q23 10 33 24.5t26 32.5v-2q8 10 34 42t58.5 73t68.5 86t65.5 85t49 68.5t19.5 34.5q0 16 -11 26.5t-28 10.5h-76l-22 -10q-8 -12 -33 -48t-57.5 -82t-67.5 -97.5t-64.5 -95.5t-49 -73.5t-19.5 -33.5zM238 39q4 -10 16 -22.5 t22 -16.5h54q10 4 21.5 13.5t17.5 17.5v1374q-6 20 -23 33l-16 8h-54q-12 -4 -23 -16.5t-15 -24.5v-1366z" />
<glyph unicode="&#xce;" horiz-adv-x="1054" d="M94 1454q0 -16 12.5 -27.5t28.5 -11.5h64q164 150 329 305l330 -305h35q18 0 44 5t26 34q0 6 -21.5 30.5t-53.5 58.5t-71 73t-74.5 73.5t-63.5 61.5t-36 37v-2q-12 12 -27.5 29.5t-35.5 17.5h-111l-363 -350q-2 -4 -7 -14.5t-5 -14.5zM463 39q4 -10 16.5 -22.5 t22.5 -16.5h55q10 4 22.5 16.5t16.5 22.5v1366q-4 12 -15.5 24.5t-23.5 16.5h-55q-12 -4 -23.5 -16.5t-15.5 -24.5v-1366z" />
<glyph unicode="&#xcf;" horiz-adv-x="675" d="M86 1479q4 -10 10 -17.5t13 -13.5l16 -8h84q18 6 33 24l6 15v90l-6 14q-14 18 -33 25h-84l-16 -9q-6 -6 -12.5 -13t-10.5 -17v-90zM279 39q4 -10 16 -22.5t22 -16.5h54q10 4 21.5 13.5t17.5 17.5v1374q-6 20 -23 33l-16 8h-54q-12 -4 -23 -16.5t-15 -24.5v-1366z M428 1479l6 -15q14 -18 33 -24h84q10 4 21.5 12t17.5 16v99q-10 29 -39 39h-84q-20 -6 -33 -23l-6 -16v-88z" />
<glyph unicode="&#xd0;" horiz-adv-x="284" d="M80 567q4 -10 16.5 -22.5t22.5 -16.5h47q10 4 21.5 13.5t17.5 19.5v397l-8 17q-6 6 -13.5 12t-17.5 10h-47q-10 -4 -21.5 -13t-17.5 -19v-398z" />
<glyph unicode="&#xd1;" horiz-adv-x="1306" d="M96 39l10 -19l25 -20h59q10 4 22.5 16.5t16.5 22.5q-2 293 -3 582.5t-1 582.5q211 -305 430 -599t437 -593l20 -12h57q12 4 24.5 15.5t16.5 23.5v1366l-10 20l-24 21h-64q-12 -4 -23.5 -16.5t-15.5 -24.5q2 -293 4 -581.5t4 -581.5q-211 303 -426 599t-436 593l-20 12 h-62q-12 -4 -24.5 -16.5t-16.5 -24.5v-1366zM223 1577q0 -18 21.5 -43t38.5 -31q16 0 35.5 14.5t44 32t53 32.5t63.5 15q51 0 100.5 -13t97.5 -30.5t97 -31t100 -13.5q25 0 62 9.5t74 26t66.5 37t37.5 44.5l2 25l-31 49l-24 12q-14 0 -30.5 -13t-39 -29.5t-51.5 -30 t-68 -13.5q-53 0 -101 14.5t-96 32t-97.5 31.5t-100.5 14q-18 0 -60 -14t-85 -34.5t-76 -46.5t-33 -46z" />
<glyph unicode="&#xd2;" d="M100 737q0 -158 41 -295t123 -238.5t207 -158.5t295 -57q166 0 290 59t207 160.5t123.5 238.5t40.5 291q0 164 -38.5 297t-120.5 226.5t-207 144.5t-297 51t-297 -51t-207 -144.5t-121 -226.5t-39 -297zM236 737q0 131 29.5 240.5t94 189.5t165 124t241.5 44t244.5 -45 t156.5 -102q35 -37 58.5 -93.5t38 -119t20.5 -126t6 -112.5q0 -123 -30.5 -236.5t-95 -200.5t-164 -139t-236.5 -52q-135 0 -235.5 52t-165 139t-96 200.5t-31.5 236.5zM522 1966q0 -6 18.5 -39t47 -80t62.5 -101t66 -104.5t56.5 -88t32.5 -52.5l10 -6l74 -6l12 13 q12 12 12 24q0 4 -16 35.5t-42 79t-56.5 103.5t-59 106.5t-49 88t-28.5 52.5l-25 12q-12 0 -31.5 1t-38 -1t-32 -10t-13.5 -27z" />
<glyph unicode="&#xd3;" d="M100 737q0 -158 41 -295t123 -238.5t207 -158.5t295 -57q166 0 290 59t207 160.5t123.5 238.5t40.5 291q0 164 -38.5 297t-120.5 226.5t-207 144.5t-297 51t-297 -51t-207 -144.5t-121 -226.5t-39 -297zM236 737q0 131 29.5 240.5t94 189.5t165 124t241.5 44t244.5 -45 t156.5 -102q35 -37 58.5 -93.5t38 -119t20.5 -126t6 -112.5q0 -123 -30.5 -236.5t-95 -200.5t-164 -139t-236.5 -52q-135 0 -235.5 52t-165 139t-96 200.5t-31.5 236.5zM592 1567q0 -14 16 -27l17 -12q4 0 21.5 2t34.5 3t7 1q4 2 26.5 30.5t56.5 72.5t74 96.5t75.5 100.5 t62.5 85t37 49q2 20 -10.5 30.5t-30.5 10.5h-74l-24 -10q-8 -12 -33 -47t-56.5 -82t-66.5 -98.5t-64.5 -95.5t-49 -74.5t-19.5 -34.5z" />
<glyph unicode="&#xd4;" d="M100 737q0 -158 41 -295t123 -238.5t207 -158.5t295 -57q166 0 290 59t207 160.5t123.5 238.5t40.5 291q0 164 -38.5 297t-120.5 226.5t-207 144.5t-297 51t-297 -51t-207 -144.5t-121 -226.5t-39 -297zM236 737q0 131 29.5 240.5t94 189.5t165 124t241.5 44t244.5 -45 t156.5 -102q35 -37 58.5 -93.5t38 -119t20.5 -126t6 -112.5q0 -123 -30.5 -236.5t-95 -200.5t-164 -139t-236.5 -52q-135 0 -235.5 52t-165 139t-96 200.5t-31.5 236.5zM344 1458q0 -39 39 -39h66q86 76 166.5 152t164.5 153l328 -305h22h21q14 0 27.5 3t23.5 9.5t10 18.5 q0 8 -22.5 37t-58 66.5t-78.5 81.5t-83 83t-71 69t-43 40v-2l-27 12h-102l-16 -6l-355 -344z" />
<glyph unicode="&#xd5;" d="M100 737q0 -158 41 -295t123 -238.5t207 -158.5t295 -57q166 0 290 59t207 160.5t123.5 238.5t40.5 291q0 164 -38.5 297t-120.5 226.5t-207 144.5t-297 51t-297 -51t-207 -144.5t-121 -226.5t-39 -297zM236 737q0 131 29.5 240.5t94 189.5t165 124t241.5 44t244.5 -45 t156.5 -102q35 -37 58.5 -93.5t38 -119t20.5 -126t6 -112.5q0 -123 -30.5 -236.5t-95 -200.5t-164 -139t-236.5 -52q-135 0 -235.5 52t-165 139t-96 200.5t-31.5 236.5zM362 1538l15 -22l-2 2q8 -14 20.5 -25.5t28.5 -11.5l16 6q29 29 67 58.5t81 29.5q45 0 88 -14.5t86 -31 t85 -30.5t89 -14q59 0 116.5 33.5t96.5 78.5l2 31q-10 16 -22.5 34.5t-32.5 27.5q-10 0 -23.5 -13.5t-32 -30t-45 -29.5t-59.5 -13q-43 0 -85 14t-84 31.5t-86 32t-93 14.5q-63 0 -125 -40t-101 -87v-31z" />
<glyph unicode="&#xd6;" d="M100 737q0 -158 41 -295t123 -238.5t207 -158.5t295 -57q166 0 290 59t207 160.5t123.5 238.5t40.5 291q0 164 -38.5 297t-120.5 226.5t-207 144.5t-297 51t-297 -51t-207 -144.5t-121 -226.5t-39 -297zM236 737q0 131 29.5 240.5t94 189.5t165 124t241.5 44t244.5 -45 t156.5 -102q35 -37 58.5 -93.5t38 -119t20.5 -126t6 -112.5q0 -123 -30.5 -236.5t-95 -200.5t-164 -139t-236.5 -52q-135 0 -235.5 52t-165 139t-96 200.5t-31.5 236.5zM510 1505q4 -12 16.5 -24.5t24.5 -16.5h86l16 9l21 22v98l-6 17q-14 18 -33 24h-86l-17 -8 q-16 -12 -22 -33v-88zM852 1505l8 -20l25 -21h94q10 4 21.5 13.5t17.5 17.5v96q-4 12 -16.5 24.5t-24.5 16.5h-86q-18 -6 -33 -24l-6 -17v-86z" />
<glyph unicode="&#xd8;" d="M100 737q0 -66 8.5 -137.5t28 -142t50 -134t75.5 -114.5q-6 -8 -25.5 -33.5t-39 -53.5t-35 -52.5t-15.5 -32.5q0 -16 12.5 -26.5t28.5 -10.5h68l23 12q23 27 42 52.5t39 52.5q84 -59 194 -94t214 -35q168 0 292 59t206 160.5t121.5 237.5t39.5 292q0 66 -9 145 t-30.5 155.5t-57.5 145t-89 111.5q4 6 16.5 21.5t24.5 34t22.5 35t10.5 22.5q0 16 -12.5 27.5t-28.5 11.5h-66l-22 -12l-49 -66q-80 41 -180.5 64.5t-190.5 23.5q-172 0 -298 -51t-207 -144.5t-121 -226.5t-40 -297zM236 737q0 131 29.5 242t94 189.5t166 122.5t242.5 44 q39 0 89 -13t96 -28.5t62 -21.5l48 -19l12 33q-182 -242 -363.5 -480.5t-363.5 -479.5q-57 90 -84.5 197.5t-27.5 213.5zM434 219q180 244 361.5 484.5t363.5 482.5l21 -22q20 -23 44.5 -75.5t45 -138.5t20.5 -213q0 -123 -30.5 -236.5t-95 -200.5t-163 -139t-235.5 -52 q-86 0 -176 26.5t-156 83.5z" />
<glyph unicode="&#xd9;" horiz-adv-x="1277" d="M96 1350q0 -209 3 -416t20 -416q10 -127 42 -226t92 -167t154.5 -102.5t231.5 -34.5q125 0 219 39t157.5 109.5t98.5 167.5t45 216q16 211 19.5 421t3.5 421v43q-4 12 -15.5 24.5t-23.5 16.5h-56q-12 -4 -24 -16.5t-16 -24.5v-311q0 -141 -1.5 -284.5t-17.5 -285.5 q-10 -86 -35.5 -160.5t-73 -131t-117 -89t-163.5 -32.5q-104 0 -174 29.5t-115 84t-68.5 131t-31.5 170.5q-23 219 -21 439.5t2 439.5q-4 12 -16 24.5t-25 16.5h-55q-12 -4 -23.5 -16.5t-15.5 -24.5v-55zM414 1909q0 -4 18.5 -36t48 -79t63.5 -102.5t65.5 -106.5t55 -89 t31.5 -50l27 -14h41q16 0 26.5 10t10.5 26q0 6 -16.5 39t-41 80t-54.5 102.5t-57.5 105.5t-48 88t-28.5 52l-25 13h-75q-41 0 -41 -39z" />
<glyph unicode="&#xda;" horiz-adv-x="1277" d="M96 1350q0 -209 3 -416t20 -416q10 -127 42 -226t92 -167t154.5 -102.5t231.5 -34.5q125 0 219 39t157.5 109.5t98.5 167.5t45 216q16 211 19.5 421t3.5 421v43q-4 12 -15.5 24.5t-23.5 16.5h-56q-12 -4 -24 -16.5t-16 -24.5v-311q0 -141 -1.5 -284.5t-17.5 -285.5 q-10 -86 -35.5 -160.5t-73 -131t-117 -89t-163.5 -32.5q-104 0 -174 29.5t-115 84t-68.5 131t-31.5 170.5q-23 219 -21 439.5t2 439.5q-4 12 -16 24.5t-25 16.5h-55q-12 -4 -23.5 -16.5t-15.5 -24.5v-55zM471 1489q0 -39 39 -39h41l16 8q12 14 25.5 28.5t23.5 31.5h-2 q8 10 32 39.5t56.5 69.5t67.5 85t63.5 83t48 64.5t19.5 30.5q0 41 -41 41h-74l-24 -10q-8 -14 -32.5 -49t-57.5 -81t-68 -96t-64.5 -93t-49 -74t-19.5 -39z" />
<glyph unicode="&#xdb;" horiz-adv-x="1277" d="M96 1350q0 -209 3 -416t20 -416q10 -127 42 -226t93 -167t155.5 -102.5t229.5 -34.5q125 0 219 39t157.5 109.5t98.5 167.5t45 216q16 211 19.5 421t3.5 421v43q-4 12 -15.5 24.5t-23.5 16.5h-56l-12 -6q2 4 4 9t2 9q0 6 -26.5 37t-66.5 72t-87 89t-90 87t-73.5 65.5 t-39.5 26.5h-112q-10 -10 -41 -40t-73 -68.5t-87 -81.5t-84 -81t-64.5 -66t-25.5 -34q0 -16 11 -30.5t28 -14.5h67q84 76 165 152t165 153l330 -305q10 0 20.5 -1t20.5 -1q23 0 43 10q-10 -6 -14 -22v-311q0 -141 -2.5 -284.5t-16.5 -285.5q-8 -86 -34.5 -160.5t-75 -131 t-117 -89t-162.5 -32.5q-102 0 -173 29.5t-116 84t-68.5 131t-31.5 170.5q-20 219 -19.5 439.5t0.5 439.5q-4 12 -16 24.5t-25 16.5h-55q-12 -4 -23.5 -16.5t-15.5 -24.5v-55z" />
<glyph unicode="&#xdc;" horiz-adv-x="1277" d="M96 1350q0 -209 3 -416t20 -416q10 -127 42 -226t92 -167t154.5 -102.5t231.5 -34.5q125 0 219 39t157.5 109.5t98.5 167.5t45 216q16 211 19.5 421t3.5 421v43q-4 12 -15.5 24.5t-23.5 16.5h-56q-12 -4 -24 -16.5t-16 -24.5v-311q0 -141 -1.5 -284.5t-17.5 -285.5 q-10 -86 -35.5 -160.5t-73 -131t-117 -89t-163.5 -32.5q-104 0 -174 29.5t-115 84t-68.5 131t-31.5 170.5q-23 219 -21 439.5t2 439.5q-4 12 -16 24.5t-25 16.5h-55q-12 -4 -23.5 -16.5t-15.5 -24.5v-55zM385 1505q6 -20 23 -32l16 -9h84q12 4 24.5 16.5t16.5 24.5v88 q-4 12 -16.5 24.5t-24.5 16.5h-84l-16 -8q-16 -12 -23 -33v-88zM727 1505l6 -16q14 -18 33 -25h84q10 4 21.5 13.5t17.5 17.5v96q-6 20 -23 33l-16 8h-84q-18 -6 -33 -24l-6 -17v-86z" />
<glyph unicode="&#xdf;" horiz-adv-x="929" d="M90 39l10 -19l25 -20h61q10 4 22.5 16.5t16.5 22.5v1055q0 41 6.5 84t23.5 77.5t49 57t83 22.5q31 0 58.5 -16t49 -41t34 -55.5t12.5 -59.5q0 -37 -27 -63.5t-57.5 -59t-57 -76.5t-26.5 -114q0 -55 10 -96t31.5 -73t54.5 -58.5t78 -55.5h-2q41 -27 71.5 -52.5t51 -56 t31 -69.5t10.5 -90q0 -82 -51.5 -136t-135.5 -54q-55 0 -107.5 24.5t-107.5 32.5l-18 -8q-16 -10 -23 -31v-61q6 -20 25 -35q55 -20 114.5 -31.5t118.5 -11.5q141 0 228.5 85t87.5 226q0 102 -24.5 169t-62.5 112t-82 73.5t-82 55t-62.5 58.5t-24.5 83q0 47 26.5 76.5 t58 60.5t58.5 70t27 106q0 57 -22.5 110.5t-62.5 93.5t-92.5 64.5t-109.5 24.5q-86 0 -143.5 -27.5t-91 -76.5t-47 -116t-13.5 -142v-1055z" />
<glyph unicode="&#xe0;" horiz-adv-x="917" d="M90 295q0 -68 22.5 -125t64.5 -97t98.5 -62.5t123.5 -22.5q92 0 170 39t133 112l3 -100q4 -10 10 -17.5t12 -13.5l16 -8h43q12 4 24.5 15.5t16.5 23.5v657q0 88 -22.5 146.5t-66.5 92.5t-107.5 47t-145.5 13q-39 0 -94 -13t-106.5 -30.5t-86.5 -31.5l-36 -13l-12 -24v-31 q0 -20 5 -48t33 -28q6 0 36 15.5t72 35t92 35t99 15.5q98 0 154.5 -37t56.5 -144v-82q-59 0 -126.5 -1t-135 -8t-130 -25.5t-111 -54.5t-77 -91t-28.5 -139zM227 295q0 55 20.5 92t55.5 60.5t78 36t90 16.5q20 2 44 1t40 3q37 10 75 5t75 5l-11 -20q0 -72 -14 -140.5 t-48 -124t-91.5 -89.5t-143.5 -34q-39 0 -69.5 16.5t-53 42t-35 59.5t-12.5 71zM254 1569q0 -4 19.5 -36t48 -79t63.5 -102.5t66.5 -106.5t55 -89t32.5 -50l24 -14q8 0 15.5 -1t15.5 -1q18 0 33.5 7.5t15.5 30.5q0 6 -16.5 38t-42 78t-55 100.5t-57.5 103.5t-49.5 89 t-27.5 56l-26 15h-74q-16 0 -28.5 -11.5t-12.5 -27.5z" />
<glyph unicode="&#xe1;" horiz-adv-x="917" d="M90 295q0 -68 22.5 -125t64.5 -97t98.5 -62.5t123.5 -22.5q92 0 170 39t133 112l3 -100q4 -10 10 -17.5t12 -13.5l16 -8h43q12 4 24.5 15.5t16.5 23.5v657q0 88 -22.5 146.5t-66.5 92.5t-107.5 47t-145.5 13q-39 0 -94 -13t-106.5 -30.5t-86.5 -31.5l-36 -13l-12 -24v-31 q0 -20 5 -48t33 -28q6 0 36 15.5t72 35t92 35t99 15.5q98 0 154.5 -37t56.5 -144v-82q-59 0 -126.5 -1t-135 -8t-130 -25.5t-111 -54.5t-77 -91t-28.5 -139zM227 295q0 55 20.5 92t55.5 60.5t78 36t90 16.5q20 2 44 1t40 3q37 10 75 5t75 5l-11 -20q0 -72 -14 -140.5 t-48 -124t-91.5 -89.5t-143.5 -34q-39 0 -69.5 16.5t-53 42t-35 59.5t-12.5 71zM287 1130q0 -16 12 -27t29 -11h41q18 10 32 26l-4 -4q10 12 37 47t62.5 80t73.5 94t71 92t53.5 73t20.5 36q0 16 -12.5 26.5t-28.5 10.5h-74l-25 -10q-8 -14 -32.5 -50t-56 -82.5t-67.5 -96.5 t-64.5 -94t-48 -73.5t-19.5 -36.5z" />
<glyph unicode="&#xe2;" horiz-adv-x="1054" d="M94 1133q0 -39 41 -39h64q84 78 165.5 154.5t163.5 154.5l330 -309h25q8 0 22.5 1t26.5 5t21.5 11.5t9.5 21.5q0 4 -26 34.5t-66 72.5t-87 90t-90 89t-74.5 67.5t-39.5 26.5h-111l-363 -350q-2 -4 -7 -15t-5 -15zM121 295q0 -137 85 -222t222 -85q88 0 168 39t133 108 v-96l6 -14q14 -18 33 -25h49l17 8l20 23v665q0 88 -22.5 146.5t-65.5 92.5t-106.5 47t-145.5 13q-78 0 -167 -20.5t-152 -67.5l-13 -24v-31q0 -10 1 -22.5t4 -24.5t10.5 -20.5t21.5 -8.5q4 0 33 15.5t71 35t92 35t99 15.5t88 -8.5t66.5 -29t43 -55t15.5 -88.5v-82 q-88 0 -193.5 -3t-197.5 -31.5t-153.5 -94t-61.5 -190.5zM258 295q0 68 30.5 108.5t79 63t105.5 30t111 7.5h69q35 0 70 -2q0 -70 -15.5 -140.5t-50 -127t-91 -92.5t-138.5 -36q-39 0 -69.5 16.5t-53 42t-35 59.5t-12.5 71z" />
<glyph unicode="&#xe3;" horiz-adv-x="987" d="M90 295q0 -68 22.5 -125t64.5 -97t98.5 -62.5t123.5 -22.5q92 0 170 39t133 112l3 -100q4 -10 10 -17.5t12 -13.5l16 -8h43q12 4 24.5 15.5t16.5 23.5v657q0 88 -22.5 146.5t-66.5 92.5t-107.5 47t-145.5 13q-39 0 -94 -13t-106.5 -30.5t-86.5 -31.5l-36 -13l-12 -24v-31 q0 -20 5 -48t33 -28q6 0 36 15.5t72 35t92 35t99 15.5q98 0 154.5 -37t56.5 -144v-82q-59 0 -126.5 -1t-135 -8t-130 -25.5t-111 -54.5t-77 -91t-28.5 -139zM106 1245q6 -18 23.5 -34.5t32.5 -28.5q12 0 25.5 12t21.5 20v-2q27 23 57.5 44.5t67.5 21.5q43 0 83 -14.5 t81 -30.5h-2q45 -16 91 -31.5t95 -15.5q59 0 116.5 32.5t94.5 77.5l2 27l-8 18v5q-10 18 -18.5 32.5t-32.5 14.5q-10 0 -17.5 -7.5t-13.5 -15.5l2 2q-25 -29 -55.5 -49t-69.5 -20q-43 0 -85 14t-84 32.5t-86 33t-93 14.5q-66 0 -126.5 -36t-101.5 -83v-33zM227 295 q0 55 20.5 92t55.5 60.5t78 36t90 16.5q20 2 44 1t40 3q37 10 75 5t75 5l-11 -20q0 -72 -14 -140.5t-48 -124t-91.5 -89.5t-143.5 -34q-39 0 -69.5 16.5t-53 42t-35 59.5t-12.5 71z" />
<glyph unicode="&#xe4;" horiz-adv-x="917" d="M90 295q0 -68 22.5 -125t64.5 -97t98.5 -62.5t123.5 -22.5q92 0 170 39t133 112l3 -100q4 -10 10 -17.5t12 -13.5l16 -8h43q12 4 24.5 15.5t16.5 23.5v657q0 88 -22.5 146.5t-66.5 92.5t-107.5 47t-145.5 13q-39 0 -94 -13t-106.5 -30.5t-86.5 -31.5l-36 -13l-12 -24v-31 q0 -20 5 -48t33 -28q6 0 36 15.5t72 35t92 35t99 15.5q98 0 154.5 -37t56.5 -144v-82q-59 0 -126.5 -1t-135 -8t-130 -25.5t-111 -54.5t-77 -91t-28.5 -139zM211 1163q4 -12 15.5 -24.5t23.5 -16.5h88l16 8l21 23v98l-6 17l-17 16l-16 6h-86l-17 -6q-16 -12 -22 -33v-88z M227 295q0 55 20.5 92t55.5 60.5t78 36t90 16.5q20 2 44 1t40 3q37 10 75 5t75 5l-11 -20q0 -72 -14 -140.5t-48 -124t-91.5 -89.5t-143.5 -34q-39 0 -69.5 16.5t-53 42t-35 59.5t-12.5 71zM551 1163q4 -12 16.5 -24.5t24.5 -16.5h84q12 4 24.5 16.5t16.5 24.5v86l-10 21 l-25 18h-92l-17 -6q-16 -12 -22 -33v-86z" />
<glyph unicode="&#xe5;" horiz-adv-x="917" d="M90 295q0 -68 22.5 -125t64.5 -97t98.5 -62.5t123.5 -22.5q92 0 170 39t133 112l3 -100q4 -10 10 -17.5t12 -13.5l16 -8h43q12 4 24.5 15.5t16.5 23.5v657q0 88 -22.5 146.5t-66.5 92.5t-107.5 47t-145.5 13q-39 0 -94 -13t-106.5 -30.5t-86.5 -31.5l-36 -13l-12 -24v-31 q0 -20 5 -48t33 -28q6 0 36 15.5t72 35t92 35t99 15.5q98 0 154.5 -37t56.5 -144v-82q-59 0 -126.5 -1t-135 -8t-130 -25.5t-111 -54.5t-77 -91t-28.5 -139zM227 295q0 55 20.5 92t55.5 60.5t78 36t90 16.5q20 2 44 1t40 3q37 10 75 5t75 5l-11 -20q0 -72 -14 -140.5 t-48 -124t-91.5 -89.5t-143.5 -34q-39 0 -69.5 16.5t-53 42t-35 59.5t-12.5 71zM315 1178q0 -78 52.5 -129.5t130.5 -51.5q76 0 127 52.5t51 128.5q0 78 -52.5 128t-127.5 50q-76 0 -128.5 -51.5t-52.5 -126.5zM430 1178q0 29 19.5 47t48 22t53.5 -6t35 -39q6 -18 0 -35.5 t-19.5 -32t-33 -22.5t-37.5 -4q-29 4 -47.5 22.5t-18.5 47.5z" />
<glyph unicode="&#xe6;" horiz-adv-x="1638" d="M102 293q0 -68 21.5 -123t60.5 -96t94.5 -63.5t122.5 -22.5q117 0 213.5 61.5t145.5 165.5q61 -113 168.5 -170t234.5 -57q78 0 167 20.5t157 61.5l10 22v29q0 18 -3 35.5t-12 29t-28 11.5q-25 -18 -62.5 -35t-78.5 -29t-80 -19.5t-70 -7.5q-82 0 -144.5 29t-104.5 79 t-63.5 117.5t-21.5 145.5v21q168 0 336 1t336 9l31 31q2 16 3 32.5t1 32.5q0 88 -27.5 161t-78 125t-123 80.5t-160.5 28.5q-102 0 -192.5 -40.5t-155.5 -118.5q-45 76 -129 117.5t-170 41.5t-175 -30.5t-159 -79.5l-12 -23v-32q0 -20 6 -40t33 -18q76 35 147.5 70t159.5 35 q94 0 147 -43t53 -142v-80q-90 8 -194.5 3t-194.5 -37.5t-149.5 -101t-59.5 -187.5zM231 293q0 68 31 109.5t78 64t105.5 31t111.5 8.5q35 0 69.5 -1t69.5 -3q-4 -72 -17 -142.5t-47 -127t-89.5 -91.5t-141.5 -35q-78 0 -124 55.5t-46 131.5zM834 612q8 55 36.5 104.5 t71.5 85.5t96.5 57.5t108.5 21.5q117 0 180.5 -73.5t75.5 -184.5q-143 -4 -284.5 -7.5t-284.5 -3.5z" />
<glyph unicode="&#xe7;" horiz-adv-x="980" d="M92 514q0 -100 19.5 -190.5t65.5 -160t121 -114.5t185 -57q-12 -31 -12 -64t28.5 -51t64.5 -31.5t64.5 -24.5t28.5 -30q0 -29 -25.5 -36t-45.5 -7q-47 0 -83 22.5t-52 22.5q-37 0 -37 -39v-61l12 -27q35 -20 77 -28.5t83 -8.5q39 0 76.5 9.5t67.5 29t47.5 51t17.5 76.5 q0 33 -14.5 57.5t-37 44t-50 33t-54.5 21.5v-2q-12 4 -25.5 9t-25.5 9l8 23q70 6 142.5 24.5t133.5 51.5l13 26v37q0 20 -5.5 38.5t-25.5 29.5q-10 0 -43 -14.5t-77 -31t-94 -31t-97 -14.5q-90 0 -150.5 35t-99.5 91.5t-55.5 130t-16.5 151.5t18.5 144.5t58.5 115.5 t100.5 78t144.5 29q39 0 80 -10.5t77.5 -22.5t68.5 -22.5t52 -10.5q16 0 26.5 11.5t10.5 27.5v68l-16 24q-72 29 -148 41t-151 12q-115 0 -199 -34.5t-140.5 -99t-84 -153.5t-27.5 -198z" />
<glyph unicode="&#xe8;" horiz-adv-x="1007" d="M92 524q0 -117 22.5 -215t75 -169.5t139.5 -111.5t216 -40q78 0 166 20.5t155 61.5l13 22v31q0 20 -5.5 47t-33.5 27q-6 0 -36 -14.5t-72 -31t-91 -31t-96 -14.5q-84 0 -143.5 28t-97.5 77t-58.5 114.5t-22.5 141.5q166 0 331 5t331 11q8 8 17 18.5t13 20.5q0 94 -18 180 t-61 153t-116 105.5t-181 38.5q-109 0 -193 -34.5t-140 -97t-85 -150.5t-29 -193zM223 588q10 133 96.5 213t219.5 80q59 0 103 -23.5t73.5 -62.5t46 -89.5t20.5 -103.5q-123 -10 -246.5 -12t-248.5 -2h-64zM307 1569q0 -4 19.5 -36t48 -79t63.5 -102.5t67 -106.5t55.5 -89 t31.5 -50l24 -14q8 0 15.5 -1t15.5 -1q18 0 33.5 7.5t15.5 30.5q0 6 -16 39t-41 80t-54.5 102.5t-57 104.5t-48 87t-28.5 52l-27 15h-74q-16 0 -29.5 -10.5t-13.5 -28.5z" />
<glyph unicode="&#xe9;" horiz-adv-x="1007" d="M92 524q0 -117 22.5 -215t75 -169.5t139.5 -111.5t216 -40q78 0 166 20.5t155 61.5l13 22v31q0 20 -5.5 47t-33.5 27q-6 0 -36 -14.5t-72 -31t-91 -31t-96 -14.5q-84 0 -143.5 28t-97.5 77t-58.5 114.5t-22.5 141.5q166 0 331 5t331 11q8 8 17 18.5t13 20.5q0 94 -18 180 t-61 153t-116 105.5t-181 38.5q-109 0 -193 -34.5t-140 -97t-85 -150.5t-29 -193zM223 588q10 133 96.5 213t219.5 80q59 0 103 -23.5t73.5 -62.5t46 -89.5t20.5 -103.5q-123 -10 -246.5 -12t-248.5 -2h-64zM352 1130q0 -39 39 -38h41l17 8q10 12 38.5 47t65.5 82t77 98 t73.5 95t55 76t21.5 38q0 37 -39 37h-75l-23 -12q-8 -12 -32.5 -46t-57.5 -80t-67.5 -97.5t-64.5 -95.5t-49.5 -74.5t-19.5 -37.5z" />
<glyph unicode="&#xea;" horiz-adv-x="1073" d="M92 524q0 -117 22.5 -215t75 -169.5t139.5 -111.5t216 -40q78 0 166 20.5t153 61.5l13 22v31q0 18 -5.5 46t-31.5 28q-6 0 -36 -14.5t-73 -31t-92 -31t-94 -14.5q-84 0 -143.5 28t-98.5 77t-58.5 114.5t-23.5 141.5q166 0 331 5t331 11q8 6 18 17.5t14 21.5q0 94 -18 180 t-61 153t-116 105.5t-181 38.5q-109 0 -192 -34.5t-140 -98t-86 -150.5t-29 -192zM111 1139q0 -16 11 -30.5t28 -14.5h65q86 78 167 154.5t165 154.5l327 -309h25q8 0 22.5 1t28 5t22.5 11.5t9 21.5q0 4 -25.5 34.5t-65.5 72.5t-87 90t-90 89t-75 67.5t-40 26.5h-102l-17 -6 q-10 -10 -40.5 -38.5t-71.5 -67.5t-86 -82t-82 -81t-62.5 -65.5t-25.5 -33.5zM223 588q6 63 32 117.5t66.5 93.5t96 60.5t121.5 21.5q59 0 103 -23.5t73.5 -62.5t46 -89.5t22.5 -103.5q-125 -10 -248.5 -12t-248.5 -2h-64z" />
<glyph unicode="&#xeb;" horiz-adv-x="1007" d="M92 524q0 -117 22.5 -215t75 -169.5t139.5 -111.5t216 -40q78 0 166 20.5t155 61.5l13 22v31q0 20 -5.5 47t-33.5 27q-6 0 -36 -14.5t-72 -31t-91 -31t-96 -14.5q-84 0 -143.5 28t-97.5 77t-58.5 114.5t-22.5 141.5q166 0 331 5t331 11q8 8 17 18.5t13 20.5q0 94 -18 180 t-61 153t-116 105.5t-181 38.5q-109 0 -193 -34.5t-140 -97t-85 -150.5t-29 -193zM223 588q10 133 96.5 213t219.5 80q59 0 103 -23.5t73.5 -62.5t46 -89.5t20.5 -103.5q-123 -10 -246.5 -12t-248.5 -2h-64zM258 1163q4 -12 14.5 -24.5t22.5 -16.5h88l16 8q17 13 23 33v88 q-6 20 -23 33l-16 6h-88l-14 -6q-16 -12 -23 -33v-88zM598 1163q6 -20 23 -33l16 -8h84q12 4 24.5 16.5t16.5 24.5v86q-6 18 -25 33l-16 6h-84l-16 -6q-16 -12 -23 -33v-86z" />
<glyph unicode="&#xec;" horiz-adv-x="557" d="M84 1569q0 -4 19.5 -36t48 -79t63.5 -102.5t66.5 -106.5t55 -89t32.5 -50l24 -14q8 0 15.5 -1t15.5 -1q18 0 33.5 7.5t15.5 30.5q0 6 -16.5 39t-41 79t-54 101.5t-57.5 104.5t-48 88t-29 53l-26 15h-74q-16 0 -29.5 -10.5t-13.5 -28.5zM236 39q4 -10 10 -17.5t12 -13.5 l16 -8h52q12 4 24.5 15.5t16.5 23.5v907q-6 18 -25 33l-16 6h-52l-16 -6q-16 -12 -22 -33v-907z" />
<glyph unicode="&#xed;" horiz-adv-x="600" d="M86 1130q0 -16 12.5 -27t28.5 -11h35q10 6 40.5 39.5t69.5 81t82 102.5t78 102t58.5 80t23.5 39q0 37 -39 37h-76l-22 -10q-8 -14 -33 -49t-57.5 -81.5t-67.5 -96.5t-64.5 -93t-49 -74.5t-19.5 -38.5zM215 39l10 -19l25 -20h59l17 8l20 23v915q-6 20 -22 33l-17 6h-51 l-16 -6q-18 -14 -25 -33v-907z" />
<glyph unicode="&#xee;" horiz-adv-x="1054" d="M92 1133q0 -20 12.5 -29.5t30.5 -9.5h64q84 78 165.5 154.5t163.5 154.5l330 -309h23q8 0 22.5 1t27.5 5t22.5 11.5t9.5 21.5q0 6 -24 32.5t-59.5 64.5t-78.5 81l-82 82t-71 68.5t-42 41.5v-2q-4 4 -14 8t-14 4h-111l-363 -350q-2 -4 -7 -15t-5 -15zM422 39 q4 -10 13 -21.5t20 -17.5h59q10 4 21.5 13.5t17.5 17.5v915q-6 18 -25 33l-16 6h-51l-17 -6q-16 -12 -22 -33v-907z" />
<glyph unicode="&#xef;" horiz-adv-x="677" d="M86 1163q4 -12 16.5 -24.5t24.5 -16.5h84l16 8l21 23v98l-6 17l-17 16l-16 6h-84l-16 -6q-16 -12 -23 -33v-88zM264 39q4 -12 16.5 -23.5t24.5 -15.5h53q10 4 22.5 16.5t16.5 22.5v907l-10 21l-22 18h-62l-16 -6q-16 -12 -23 -33v-907zM428 1163l8 -20l25 -21h92 q10 4 21.5 13.5t17.5 17.5v96q-6 18 -25 33l-16 6h-84l-16 -6l-17 -16l-6 -17v-86z" />
<glyph unicode="&#xf0;" horiz-adv-x="335" d="M80 29l10 -21l25 -20h100q12 4 24.5 16.5t16.5 24.5v94l-10 20l-25 19h-100q-20 -6 -33 -23l-8 -16v-94z" />
<glyph unicode="&#xf1;" horiz-adv-x="1011" d="M92 39q4 -10 13.5 -21.5t19.5 -17.5h57q12 4 24.5 15.5t16.5 23.5v623q0 47 31 85.5t77 67.5t97 45.5t92 16.5q55 0 103.5 -14.5t84 -44.5t56 -74t20.5 -101v-604q4 -12 16.5 -23.5t24.5 -15.5h49l17 8l20 23v612q0 92 -28.5 158.5t-80.5 109.5t-125 63.5t-159 20.5 t-164 -32.5t-137 -94.5l-4 86l-25 25l-14 6h-43l-14 -6q-18 -14 -25 -33v-907zM129 1245q6 -16 22.5 -33.5t30.5 -29.5q14 0 26.5 11t22.5 21v-2q27 23 57.5 44.5t67.5 21.5q43 0 84 -14.5t84 -32t87 -31.5t94 -14q59 0 117.5 32.5t95.5 77.5l2 33q-10 18 -20.5 41t-37.5 23 q-20 0 -31 -23l3 2q-25 -29 -57 -49t-72 -20q-45 0 -87.5 14t-84 32.5t-86 33t-91.5 14.5q-63 0 -124.5 -36t-102.5 -83v-33z" />
<glyph unicode="&#xf2;" horiz-adv-x="1112" d="M94 498q0 -111 29 -204t87 -162t145 -106.5t204 -37.5t203 39t143.5 106.5t85 160.5t27.5 204q0 117 -26.5 209t-82 157.5t-142.5 100t-210 34.5q-121 0 -209 -34.5t-144.5 -100t-83 -158t-26.5 -208.5zM223 498q0 82 19.5 152.5t59.5 121.5t103.5 80t153.5 29 q92 0 154.5 -26t101.5 -73t55.5 -113.5t16.5 -150.5q0 -82 -17.5 -156.5t-55.5 -131t-101.5 -90.5t-155.5 -34q-86 0 -148.5 32t-104.5 85t-61.5 125t-19.5 150zM346 1569q0 -4 18.5 -36t48 -79t63.5 -102.5t65.5 -106.5t55.5 -89t32 -50l24 -14q8 0 15.5 -1t15.5 -1 q18 0 33.5 7.5t15.5 30.5q0 6 -16.5 38t-42 78t-55 100.5t-57 103.5t-49 89t-28.5 56l-24 15h-76q-39 0 -39 -39z" />
<glyph unicode="&#xf3;" horiz-adv-x="1112" d="M94 498q0 -111 29 -204t87 -162t145 -106.5t204 -37.5t203 39t143.5 106.5t85 160.5t27.5 204q0 117 -26.5 209t-82 157.5t-142.5 100t-210 34.5q-121 0 -209 -34.5t-144.5 -100t-83 -158t-26.5 -208.5zM223 498q0 82 19.5 152.5t59.5 121.5t103.5 80t153.5 29 q92 0 154.5 -26t101.5 -73t55.5 -113.5t16.5 -150.5q0 -82 -17.5 -156.5t-55.5 -131t-101.5 -90.5t-155.5 -34q-86 0 -148.5 32t-104.5 85t-61.5 125t-19.5 150zM401 1130q0 -16 12.5 -27t28.5 -11h41q20 8 35 26l-4 -4q10 12 37 46t61.5 79t73.5 95t70.5 93t52 73t20.5 36 q0 37 -38 37h-76l-23 -12q-8 -12 -32.5 -46t-57.5 -80t-67.5 -98.5t-64.5 -95.5t-49.5 -74.5t-19.5 -36.5z" />
<glyph unicode="&#xf4;" horiz-adv-x="1112" d="M96 498q0 -111 29 -204t87 -160.5t144 -106.5t203 -39t203 39t143.5 106.5t85 160.5t27.5 204q0 115 -25.5 208t-81 158.5t-142.5 100t-210 34.5q-121 0 -209 -34.5t-144 -100t-83 -158t-27 -208.5zM96 1133q0 -39 39 -39h66q84 76 167 151.5t162 155.5l330 -307h23 q8 0 22.5 1t27.5 5t22.5 11.5t9.5 21.5q0 4 -26 34.5t-65.5 72.5t-87 90t-89.5 89t-73.5 67.5t-39.5 26.5h-115l-363 -350q-2 -4 -6 -15t-4 -15zM225 498q0 82 18.5 152.5t59.5 121.5t103.5 80t152.5 29q88 0 150.5 -30t102.5 -81t58.5 -121.5t18.5 -150.5q0 -78 -19.5 -150 t-59.5 -125t-102.5 -85t-148.5 -32t-148.5 32t-104.5 85t-61.5 125t-19.5 150z" />
<glyph unicode="&#xf5;" horiz-adv-x="1112" d="M94 498q0 -111 29 -204t87 -162t145 -106.5t204 -37.5t203 39t143.5 106.5t85 160.5t27.5 204q0 117 -26.5 209t-82 157.5t-142.5 100t-210 34.5q-121 0 -209 -34.5t-144.5 -100t-83 -158t-26.5 -208.5zM158 1237l30 -41l19 -10l20 2l17 8q25 29 61.5 55.5t77.5 26.5 q43 0 84 -14.5t84 -32t87 -31.5t93 -14q59 0 117.5 32.5t95.5 77.5l2 33q-8 23 -19.5 43.5t-37.5 20.5q-10 0 -18.5 -7.5t-12.5 -15.5l2 2q-25 -29 -56.5 -49t-72.5 -20q-43 0 -85 14t-84 32.5t-86 33t-93 14.5q-63 0 -123.5 -36t-101.5 -83v-41zM223 498q0 82 19.5 152.5 t59.5 121.5t103.5 80t153.5 29q92 0 154.5 -26t101.5 -73t55.5 -113.5t16.5 -150.5q0 -82 -17.5 -156.5t-55.5 -131t-101.5 -90.5t-155.5 -34q-86 0 -148.5 32t-104.5 85t-61.5 125t-19.5 150z" />
<glyph unicode="&#xf6;" horiz-adv-x="1112" d="M94 498q0 -111 29 -204t87 -162t145 -106.5t204 -37.5t203 39t143.5 106.5t85 160.5t27.5 204q0 117 -26.5 209t-82 157.5t-142.5 100t-210 34.5q-121 0 -209 -34.5t-144.5 -100t-83 -158t-26.5 -208.5zM223 498q0 82 19.5 152.5t59.5 121.5t103.5 80t153.5 29 q92 0 154.5 -26t101.5 -73t55.5 -113.5t16.5 -150.5q0 -82 -17.5 -156.5t-55.5 -131t-101.5 -90.5t-155.5 -34q-86 0 -148.5 32t-104.5 85t-61.5 125t-19.5 150zM293 1163l10 -20l25 -21h94l16 8l21 25v96q-6 20 -23 33l-16 6h-86l-17 -6q-18 -14 -24 -33v-88zM637 1163 l8 -20l25 -21h94q10 4 20.5 13.5t16.5 17.5v96q-6 18 -25 33l-14 6h-86l-17 -6q-16 -12 -22 -33v-86z" />
<glyph unicode="&#xf7;" horiz-adv-x="837" d="M90 719l6 -17l17 -16l16 -6h582l16 6l21 23v57l-7 16q-14 18 -32 25h-582l-16 -8l-15 -17l-6 -16v-47zM328 457l10 -19l24 -20h101l16 8l21 23v104q-4 10 -10.5 17.5t-12.5 13.5l-16 8h-92q-12 -4 -24.5 -15.5t-16.5 -23.5v-96zM328 938l10 -18l24 -19h101 q12 4 23.5 14.5t15.5 22.5v96q-4 12 -16.5 23.5t-24.5 15.5h-92q-12 -4 -24.5 -15t-16.5 -24v-96z" />
<glyph unicode="&#xf8;" horiz-adv-x="1112" d="M94 498q0 -43 6 -92.5t18.5 -97.5t34 -91t52.5 -76q-4 -6 -15.5 -20.5t-22.5 -31.5t-20.5 -31.5t-9.5 -20.5q0 -16 10.5 -26.5t26.5 -10.5h57l23 12l35 43h-2l6 6q59 -35 127.5 -54t138.5 -19q117 0 203 39t142.5 107.5t85 161.5t28.5 202q0 45 -5 95t-18.5 99t-34 93 t-51.5 79q12 12 36 42t24 48q0 37 -39 37h-58l-18 -8l-33 -47q-59 33 -128.5 48t-135.5 15q-121 0 -209 -34.5t-144.5 -100t-83 -158t-26.5 -208.5zM223 498q0 82 19.5 152.5t59.5 121.5t103.5 80t153.5 29q92 0 154.5 -26t101.5 -73t55.5 -113.5t16.5 -150.5 q0 -82 -17.5 -156.5t-55.5 -131t-101.5 -90.5t-155.5 -34q-86 0 -148.5 32t-104.5 85t-61.5 125t-19.5 150z" />
<glyph unicode="&#xf9;" horiz-adv-x="989" d="M92 399q0 -88 20.5 -163.5t64.5 -131t111.5 -86t164.5 -30.5q94 0 177 39t140 114l2 -102q4 -12 16.5 -23.5t24.5 -15.5h45l16 8q6 6 12.5 13.5t10.5 17.5v907q-6 20 -23 33l-16 6h-51l-16 -6q-16 -12 -23 -33v-262q0 -66 -1 -132.5t-1 -131.5q0 -63 -24.5 -120.5 t-67.5 -100.5t-100.5 -68t-120.5 -25q-66 0 -110 25t-70.5 66t-39 94t-12.5 108q0 139 1 276.5t3 276.5q0 12 -8 22.5t-22 10.5h-58l-16 -6l-23 -25q-6 -276 -6 -555zM293 1569q0 -4 19.5 -36t48 -79t63.5 -102.5t66.5 -106.5t55 -89t32.5 -50l24 -14q8 0 15.5 -1t15.5 -1 q18 0 33.5 7.5t15.5 30.5q0 6 -16.5 39t-41 80t-54 102.5t-57.5 104.5t-48.5 87t-28.5 52l-26 15h-74q-16 0 -29.5 -10.5t-13.5 -28.5z" />
<glyph unicode="&#xfa;" horiz-adv-x="989" d="M92 399q0 -88 20.5 -163.5t64.5 -131t111.5 -86t164.5 -30.5q94 0 177 39t140 114l2 -102q4 -12 16.5 -23.5t24.5 -15.5h45l16 8q6 6 12.5 13.5t10.5 17.5v907q-6 20 -23 33l-16 6h-51l-16 -6q-16 -12 -23 -33v-262q0 -66 -1 -132.5t-1 -131.5q0 -63 -24.5 -120.5 t-67.5 -100.5t-100.5 -68t-120.5 -25q-66 0 -110 25t-70.5 66t-39 94t-12.5 108q0 139 1 276.5t3 276.5q0 12 -8 22.5t-22 10.5h-58l-16 -6l-23 -25q-6 -276 -6 -555zM332 1130q0 -39 39 -38h41l16 8q10 12 39 47t66.5 82t77.5 98t74 95t55.5 76t21.5 38q0 16 -12.5 26.5 t-28.5 10.5h-76l-22 -10q-8 -14 -34 -49t-57.5 -81.5t-67.5 -96.5t-64.5 -93t-48 -74.5t-19.5 -38.5z" />
<glyph unicode="&#xfb;" horiz-adv-x="1052" d="M94 1133q0 -39 41 -39h64q84 78 165.5 154.5t163.5 154.5l328 -309h25q8 0 22.5 1t26.5 5t21.5 11.5t9.5 21.5q0 6 -24 32.5t-59.5 64.5t-79.5 82l-84 84t-71 70.5t-41 40.5q-4 4 -11 5t-11 1h-111l-363 -350q-2 -4 -7 -15t-5 -15zM98 399q0 -88 20.5 -163.5t63.5 -131 t111.5 -86t165.5 -30.5q96 0 177 39t140 114l4 -102q4 -10 10.5 -17.5t12.5 -13.5l16 -8h43q12 4 24.5 15.5t16.5 23.5v907q-6 18 -24 33l-17 6h-49l-16 -6q-16 -12 -23 -33v-262q0 -66 -1 -132.5t-1 -131.5q0 -63 -24.5 -120.5t-67.5 -100.5t-100.5 -68t-120.5 -25 q-66 0 -110 25t-70.5 66t-39 94t-12.5 108q0 113 5.5 224.5t5.5 224.5q0 14 1 37.5t-1 45t-12.5 38t-30.5 16.5h-54l-14 -6l-23 -25q-6 -276 -6 -555z" />
<glyph unicode="&#xfc;" horiz-adv-x="989" d="M92 399q0 -88 20.5 -163.5t64.5 -131t111.5 -86t164.5 -30.5q94 0 177 39t140 114l2 -102q4 -12 16.5 -23.5t24.5 -15.5h45l16 8q6 6 12.5 13.5t10.5 17.5v907q-6 20 -23 33l-16 6h-51l-16 -6q-16 -12 -23 -33v-262q0 -66 -1 -132.5t-1 -131.5q0 -63 -24.5 -120.5 t-67.5 -100.5t-100.5 -68t-120.5 -25q-66 0 -110 25t-70.5 66t-39 94t-12.5 108q0 139 1 276.5t3 276.5q0 12 -8 22.5t-22 10.5h-58l-16 -6l-23 -25q-6 -276 -6 -555zM233 1163q4 -12 16.5 -24.5t24.5 -16.5h86q10 4 21.5 13.5t17.5 17.5v98q-6 20 -22 33l-17 6h-86l-16 -6 q-18 -14 -25 -33v-88zM575 1163q6 -20 23 -33l16 -8h86q10 4 20.5 13.5t16.5 17.5v96q-6 20 -22 33l-15 6h-86l-16 -6q-16 -12 -23 -33v-86z" />
<glyph unicode="&#xff;" horiz-adv-x="1118" d="M94 950q0 -6 24.5 -68.5t63.5 -155.5t85 -202.5t87 -209t74 -175.5t43 -100q-8 -25 -38 -84t-61.5 -125t-56 -121t-24.5 -69q0 -16 13 -24.5t28 -8.5h65l25 12q14 33 47 105.5t78 169t98 211t105.5 229.5t102.5 222.5t88 192.5t60.5 140t22.5 63q0 16 -12.5 24.5 t-26.5 8.5h-67l-27 -14q-84 -195 -167 -389.5t-175 -386.5l-326 776l-26 14l-50 2q-18 0 -35.5 -7t-17.5 -30zM291 1163q4 -12 16 -24.5t25 -16.5h86q10 4 21.5 13.5t17.5 17.5v98q-6 20 -23 33l-16 6h-86l-17 -6q-18 -14 -24 -33v-88zM635 1163q6 -20 22 -33l17 -8h86 q12 4 23.5 16.5t15.5 24.5v86q-6 18 -25 33l-14 6h-86l-17 -6q-16 -12 -22 -33v-86z" />
<glyph unicode="&#x152;" horiz-adv-x="2117" d="M111 737q0 -158 39.5 -294t122.5 -237.5t207 -159.5t294 -58q160 0 296 63.5t228 198.5v-211q4 -10 16.5 -22.5t22.5 -16.5q158 0 313.5 2t313.5 -8l18 8q6 6 12.5 13.5t10.5 17.5v28q0 16 -3 30.5t-12.5 26t-25.5 17.5q-57 -4 -112.5 -7t-112.5 -3q-78 0 -154 1t-153 1 v559h272q14 0 45 -3t59 -3q31 0 53.5 8t22.5 31v53q-6 20 -22 33l-17 6h-413v510h262q63 0 124.5 -4t125.5 -4q41 0 41 39v53q-4 12 -16.5 24.5t-24.5 16.5h-607q-12 -4 -23 -16.5t-16 -24.5v-172q-47 68 -105 110.5t-126 68.5t-141.5 35t-151.5 9q-172 0 -297 -51 t-207 -144.5t-120.5 -226.5t-38.5 -297zM246 737q0 131 29.5 240.5t93 189.5t164 124t241.5 44t240.5 -44t162 -124t92 -189.5t29.5 -240.5q0 -123 -30.5 -236.5t-95 -200.5t-163 -139t-235.5 -52q-135 0 -235.5 52t-165 139t-96 200.5t-31.5 236.5z" />
<glyph unicode="&#x153;" horiz-adv-x="1830" d="M106 498q0 -111 29 -204t87.5 -162t145.5 -106.5t203 -37.5q125 0 228.5 48t163.5 165q29 -57 71.5 -98.5t95 -67t111.5 -36.5t121 -11q78 0 161 21.5t150 58.5l15 24v47q2 20 -5.5 39t-31.5 19q-4 0 -15.5 -5.5t-15.5 -7.5l2 2q-59 -33 -128 -56.5t-134 -23.5 q-84 0 -144.5 27t-100.5 75t-60.5 114.5t-24.5 144.5q166 0 332 4t332 12l24 25l6 14q0 92 -18 179t-61 153t-115 105.5t-178 39.5q-121 0 -225.5 -47t-163.5 -155q-66 96 -172.5 149t-221.5 53q-121 0 -209 -34.5t-144 -100t-83 -158t-27 -208.5zM227 498q0 82 19.5 152.5 t59.5 121.5t103.5 80t153.5 29q92 0 154.5 -26t101.5 -73t55.5 -113.5t16.5 -150.5q0 -82 -17.5 -156.5t-55.5 -131t-101.5 -90.5t-155.5 -34q-86 0 -148.5 32t-104.5 85t-61.5 125t-19.5 150zM1024 612q8 55 37 104.5t72 85.5t96 57.5t108 21.5q117 0 180.5 -73.5 t75.5 -184.5q-143 -4 -284.5 -7.5t-284.5 -3.5z" />
<glyph unicode="&#x178;" horiz-adv-x="1046" d="M92 1411q0 -8 23.5 -63.5t59.5 -136.5t80 -176t84 -182t70.5 -153.5t41.5 -89.5v-571q4 -10 10 -17.5t12 -13.5l16 -8h58q10 4 22.5 16.5t16.5 22.5v575q10 23 41.5 88.5t72.5 152.5t86 182.5t82 176t61.5 136t24.5 61.5q0 16 -13 25.5t-28 9.5h-57l-25 -16 q-78 -166 -155.5 -332t-155.5 -334l-299 666l-26 16h-29q-16 0 -32.5 -2t-29 -10.5t-12.5 -22.5zM262 1505q4 -12 16.5 -24.5t24.5 -16.5h84q10 4 21.5 13.5t17.5 17.5v98q-6 20 -23 33l-16 8h-84q-12 -4 -24.5 -16t-16.5 -25v-88zM604 1505q6 -20 23 -32l16 -9h86 q10 4 20.5 13.5t16.5 17.5v98q-4 12 -14.5 24.5t-22.5 16.5h-86l-16 -8q-16 -12 -23 -33v-88z" />
<glyph unicode="&#x2c6;" horiz-adv-x="1054" d="M92 1133q0 -20 12.5 -29.5t30.5 -9.5h64q84 78 165.5 154.5t163.5 154.5l330 -309h23q8 0 22.5 1t27.5 5t22.5 11.5t9.5 21.5q0 6 -24 32.5t-59.5 64.5t-78.5 81l-82 82t-71 68.5t-42 41.5v-2q-4 4 -14 8t-14 4h-111l-363 -350q-2 -4 -7 -15t-5 -15z" />
<glyph unicode="&#x2dc;" horiz-adv-x="1077" d="M92 1260q0 -6 7 -17.5t17.5 -23t19.5 -21.5t16 -16q12 0 31.5 15t44 32.5t54 33t64.5 15.5q51 0 100.5 -14.5t98.5 -32t98 -31.5t102 -14q63 0 129 31.5t109 76.5l2 37l-31 49l-24 15q-14 0 -23.5 -8.5t-19.5 -18.5v2q-29 -29 -65 -48t-77 -19q-53 0 -102 14t-97 32.5 t-98.5 33t-101.5 14.5q-18 0 -60 -13.5t-85 -34t-76 -45t-33 -44.5z" />
<glyph unicode="&#x2000;" horiz-adv-x="1004" />
<glyph unicode="&#x2001;" horiz-adv-x="2009" />
<glyph unicode="&#x2002;" horiz-adv-x="1004" />
<glyph unicode="&#x2003;" horiz-adv-x="2009" />
<glyph unicode="&#x2004;" horiz-adv-x="669" />
<glyph unicode="&#x2005;" horiz-adv-x="502" />
<glyph unicode="&#x2006;" horiz-adv-x="334" />
<glyph unicode="&#x2007;" horiz-adv-x="334" />
<glyph unicode="&#x2008;" horiz-adv-x="251" />
<glyph unicode="&#x2009;" horiz-adv-x="401" />
<glyph unicode="&#x200a;" horiz-adv-x="111" />
<glyph unicode="&#x2010;" horiz-adv-x="641" d="M86 627l10 -21l23 -20h397q12 4 23.5 16.5t15.5 24.5v45l-10 20l-23 19h-397q-16 -8 -31 -23l-8 -16v-45z" />
<glyph unicode="&#x2011;" horiz-adv-x="641" d="M86 627l10 -21l23 -20h397q12 4 23.5 16.5t15.5 24.5v45l-10 20l-23 19h-397q-16 -8 -31 -23l-8 -16v-45z" />
<glyph unicode="&#x2012;" horiz-adv-x="641" d="M86 627l10 -21l23 -20h397q12 4 23.5 16.5t15.5 24.5v45l-10 20l-23 19h-397q-16 -8 -31 -23l-8 -16v-45z" />
<glyph unicode="&#x2013;" horiz-adv-x="835" d="M90 723l6 -16l15 -17l16 -6h582l16 6l20 23v55l-6 16l-14 17l-16 6h-582l-16 -6l-15 -17l-6 -16v-45z" />
<glyph unicode="&#x2014;" horiz-adv-x="1439" d="M98 723l11 -21l24 -18h1167l17 6q18 15 24 33v45l-10 20l-24 19h-1168l-16 -6q-18 -14 -25 -33v-45z" />
<glyph unicode="&#x2018;" horiz-adv-x="403" d="M82 1120q0 -18 12 -27.5t29 -9.5h76l20 13l12 16q6 39 21.5 96.5t31 117.5t27 114.5t11.5 89.5q0 16 -12.5 28.5t-28.5 12.5h-37q-10 -4 -19.5 -12.5t-17.5 -16.5q-6 -25 -26.5 -90.5t-42 -137t-39 -129t-17.5 -65.5z" />
<glyph unicode="&#x2019;" horiz-adv-x="440" d="M82 1120q0 -16 14.5 -26.5t28.5 -10.5h41l24 17q45 111 86 220t82 220q0 16 -12 27.5t-29 11.5h-67q-10 -4 -20.5 -11t-18.5 -16l-8 -24l-21 -72l2 2q-4 -12 -20.5 -64.5t-34.5 -111.5t-32.5 -108.5t-14.5 -53.5z" />
<glyph unicode="&#x201a;" horiz-adv-x="440" d="M82 -162q0 -16 13.5 -27.5t29.5 -11.5h41l24 17q4 12 18.5 48t33 84t39 101t38 98.5t28.5 76t11 32.5q0 39 -41 39h-67q-10 -4 -20.5 -11.5t-18.5 -15.5l-8 -24l-21 -72l2 2q-2 -8 -11 -34.5t-20.5 -63.5t-23.5 -78t-22.5 -76t-17.5 -58.5t-7 -25.5z" />
<glyph unicode="&#x201c;" horiz-adv-x="608" d="M86 1120q0 -37 39 -37h76q20 10 32 29q6 39 22.5 95.5t33 114.5t29 112.5t12.5 89.5q0 16 -12.5 28.5t-28.5 12.5h-33q-10 -4 -19.5 -10.5t-17.5 -14.5q-4 -8 -14 -41t-25.5 -79t-32 -98t-30 -96t-22.5 -74t-9 -32zM279 1120q0 -18 12 -27.5t28 -9.5h74q23 12 35 29 q6 39 22.5 96.5t32 115.5t27.5 111.5t12 88.5q0 16 -11 28.5t-28 12.5h-34q-20 -6 -35 -25q-4 -8 -14.5 -41t-26 -80t-31.5 -98t-30.5 -96t-23.5 -75z" />
<glyph unicode="&#x201d;" horiz-adv-x="620" d="M86 1122q0 -39 41 -39h41q23 10 33 25q4 10 15 46t26.5 82t33 98t32 95.5t23.5 73t9 33.5q0 41 -41 41h-70q-10 -4 -20 -12.5t-19 -16.5q-6 -41 -23 -100t-35.5 -120.5t-32 -118t-13.5 -87.5zM279 1122q0 -18 13 -28.5t30 -10.5h38q23 10 33 25q4 10 15.5 45t28 82 t33.5 99t31.5 96.5t24 74t9.5 31.5q0 41 -41 41h-70q-10 -4 -21.5 -12.5t-17.5 -16.5q-6 -39 -23.5 -98t-36 -121.5t-32.5 -118t-14 -88.5z" />
<glyph unicode="&#x201e;" horiz-adv-x="620" d="M86 -166q0 -41 41 -41h41q23 12 35 29q4 14 15 51t26.5 82t33 95t31 93t22.5 72t9 33q0 39 -41 39h-70q-10 -4 -19 -11.5t-20 -15.5q-6 -41 -23 -100.5t-35.5 -121t-32 -117.5t-13.5 -87zM279 -166q0 -20 12 -30.5t31 -10.5h38q23 12 35 29q4 14 15.5 51t27 83t32.5 96 t31.5 92t24 71t9.5 33q0 39 -41 39h-70q-10 -4 -20.5 -11.5t-18.5 -15.5q-6 -39 -23.5 -98.5t-36 -122t-32.5 -117.5t-14 -88z" />
<glyph unicode="&#x2022;" horiz-adv-x="526" d="M84 766q0 -78 52 -128t128 -50t127 51t51 127t-52 128t-128 52t-127 -52t-51 -128z" />
<glyph unicode="&#x2026;" horiz-adv-x="1394" d="M98 29q4 -12 15.5 -24.5t23.5 -16.5h94l17 8l20 22v105q-10 29 -39 39h-94q-12 -4 -22.5 -15.5t-14.5 -23.5v-94zM610 29l11 -21l24 -20h98q10 4 21.5 13t17.5 17v105l-8 16q-12 16 -33 23h-90q-20 -6 -33 -23l-8 -16v-94zM1124 29l11 -21l22 -20h103q10 4 20 13t16 17 v105l-8 16q-6 6 -13 12.5t-18 10.5h-94q-29 -10 -39 -39v-94z" />
<glyph unicode="&#x202f;" horiz-adv-x="401" />
<glyph unicode="&#x2039;" horiz-adv-x="614" d="M86 737q0 -6 26.5 -35.5t66.5 -72.5t88 -91.5t90 -89t73 -68.5t37 -30q33 0 42 20.5t15 47.5l-2 -2l6 20q0 8 -3 15.5t-7 13.5q-72 72 -145.5 142.5t-147.5 140.5l293 278l12 27l-14 59q-8 8 -19.5 16.5t-21.5 12.5q-8 0 -34.5 -23.5t-64.5 -59.5t-81 -79t-83 -82 t-70.5 -69.5l-43.5 -43.5l-10 -26v4z" />
<glyph unicode="&#x203a;" horiz-adv-x="616" d="M88 432l25 -63l26 -17q8 0 40 27t74 65.5t89 84.5t87 86t66.5 70t28.5 36h2l-2 1t2 1v-2q4 8 4 16v21q-6 12 -35.5 46t-70.5 76t-87 88t-87 84t-69.5 62.5t-35.5 26.5q-29 -2 -39 -22.5t-14 -43.5v2q-4 -8 -4 -12v-21q2 -8 23.5 -29.5t52.5 -51t65.5 -63.5t68.5 -64.5 t60.5 -54t36.5 -33.5l-297 -279q-4 -10 -6 -18.5t-4 -18.5zM522 717q2 2 2 4q0 -2 -2 -2v-2z" />
<glyph unicode="&#x205f;" horiz-adv-x="502" />
<glyph unicode="&#x20ac;" horiz-adv-x="1452" d="M98 561q6 -20 23 -33l16 -8h66q51 -268 227 -400t444 -132q49 0 111 6t124 18.5t121.5 29.5t104.5 38l17 22v48q2 20 -5.5 36.5t-31.5 16.5q-27 0 -76 -14.5t-109.5 -33t-127 -32.5t-128.5 -14q-205 0 -344 106.5t-188 304.5h852l16 8q16 12 23 33v47q-10 29 -39 39h-872 q-4 23 -5 45v45q0 27 1 51.5t4 51.5h872l16 8q6 6 12.5 13t10.5 18v47q-6 20 -23 32l-16 9h-852q25 100 75 169.5t118.5 113.5t154.5 64.5t184 20.5q104 0 197.5 -21.5t192.5 -53.5l-9 6q4 -2 12.5 -5.5t12.5 -3.5q14 0 26.5 10.5t12.5 26.5v68l-16 24q-102 41 -210 55.5 t-219 14.5q-129 0 -239.5 -26.5t-197.5 -85t-146.5 -151.5t-85.5 -226h-68l-16 -9q-16 -12 -23 -32v-47q4 -10 10.5 -17.5t12.5 -13.5l16 -8h47q-4 -47 -4 -97q0 -49 4 -96h-47q-29 -10 -39 -39v-47z" />
<glyph unicode="&#x2122;" horiz-adv-x="1554" d="M100 1364q0 -49 43 -49q41 0 84 3t84 3v-598q6 -20 23 -33l16 -6h49l17 6q18 14 24 33v598q45 2 98.5 -5t94.5 11v-604q6 -18 24 -33l17 -6h51l16 6q6 8 11.5 15.5t9.5 17.5v438l237 -465l29 -12h33l26 12l238 473v-446q6 -20 23 -33l16 -6h51l17 6l22 23v692 q-6 20 -22 33l-17 8h-67l-25 -14q-70 -135 -137.5 -267.5t-138.5 -267.5l-291 535l-23 14h-63q-4 -2 -7.5 -16.5t-7.5 -33t-7 -34.5t-5 -21q-2 2 -4 18.5t-3 35t-4 34t-5 17.5h-486l-16 -8q-16 -12 -23 -33q0 -10 -1 -20.5t-1 -20.5z" />
<glyph unicode="&#xe000;" horiz-adv-x="983" d="M0 0v983h983v-983h-983z" />
</font>
</defs>
</svg>
